<mxfile>
    <diagram id="HBKw9EiVsNVVt_ObSOsj" name="ページ1">
        <mxGraphModel dx="1063" dy="757" grid="1" gridSize="10" guides="1" tooltips="1" connect="1" arrows="1" fold="1" page="1" pageScale="1" pageWidth="1169" pageHeight="1654" background="#FFFFFF" math="0" shadow="0">
            <root>
                <mxCell id="0"/>
                <mxCell id="1" parent="0"/>
                <mxCell id="126" style="edgeStyle=orthogonalEdgeStyle;rounded=0;orthogonalLoop=1;jettySize=auto;html=1;exitX=0.5;exitY=0;exitDx=0;exitDy=0;entryX=0.5;entryY=1;entryDx=0;entryDy=0;endArrow=block;endFill=1;" parent="1" source="29" target="124" edge="1">
                    <mxGeometry relative="1" as="geometry"/>
                </mxCell>
                <mxCell id="127" value="SMTP" style="edgeLabel;html=1;align=center;verticalAlign=middle;resizable=0;points=[];" parent="126" vertex="1" connectable="0">
                    <mxGeometry x="0.1143" y="2" relative="1" as="geometry">
                        <mxPoint as="offset"/>
                    </mxGeometry>
                </mxCell>
                <mxCell id="29" value="AWS Cloud" style="points=[[0,0],[0.25,0],[0.5,0],[0.75,0],[1,0],[1,0.25],[1,0.5],[1,0.75],[1,1],[0.75,1],[0.5,1],[0.25,1],[0,1],[0,0.75],[0,0.5],[0,0.25]];outlineConnect=0;gradientColor=none;html=1;whiteSpace=wrap;fontSize=12;fontStyle=0;shape=mxgraph.aws4.group;grIcon=mxgraph.aws4.group_aws_cloud_alt;strokeColor=#232F3E;fillColor=none;verticalAlign=top;align=left;spacingLeft=30;fontColor=#232F3E;dashed=0;labelBackgroundColor=none;" parent="1" vertex="1">
                    <mxGeometry x="30" y="160" width="1070" height="1050" as="geometry"/>
                </mxCell>
                <mxCell id="3" value="VPC" style="points=[[0,0],[0.25,0],[0.5,0],[0.75,0],[1,0],[1,0.25],[1,0.5],[1,0.75],[1,1],[0.75,1],[0.5,1],[0.25,1],[0,1],[0,0.75],[0,0.5],[0,0.25]];outlineConnect=0;gradientColor=none;html=1;whiteSpace=wrap;fontSize=12;fontStyle=0;shape=mxgraph.aws4.group;grIcon=mxgraph.aws4.group_vpc;strokeColor=#248814;fillColor=none;verticalAlign=top;align=left;spacingLeft=30;fontColor=#AAB7B8;dashed=0;" parent="1" vertex="1">
                    <mxGeometry x="60" y="360" width="700" height="820" as="geometry"/>
                </mxCell>
                <mxCell id="19" value="" style="fillColor=none;dashed=1;verticalAlign=top;fontStyle=0;fontColor=#5A6C86;strokeColor=#00CC66;" parent="1" vertex="1">
                    <mxGeometry x="827" y="540" width="143" height="150" as="geometry"/>
                </mxCell>
                <mxCell id="4" value="Public subnet" style="points=[[0,0],[0.25,0],[0.5,0],[0.75,0],[1,0],[1,0.25],[1,0.5],[1,0.75],[1,1],[0.75,1],[0.5,1],[0.25,1],[0,1],[0,0.75],[0,0.5],[0,0.25]];outlineConnect=0;gradientColor=none;html=1;whiteSpace=wrap;fontSize=12;fontStyle=0;shape=mxgraph.aws4.group;grIcon=mxgraph.aws4.group_security_group;grStroke=0;strokeColor=#248814;fillColor=#E9F3E6;verticalAlign=top;align=left;spacingLeft=30;fontColor=#248814;dashed=0;" parent="1" vertex="1">
                    <mxGeometry x="100" y="560" width="620" height="430" as="geometry"/>
                </mxCell>
                <mxCell id="33" value="" style="fillColor=none;dashed=1;verticalAlign=top;fontStyle=0;labelBackgroundColor=none;fontColor=#999900;strokeColor=#999900;" parent="1" vertex="1">
                    <mxGeometry x="120" y="600" width="580" height="370" as="geometry"/>
                </mxCell>
                <mxCell id="81" style="edgeStyle=orthogonalEdgeStyle;rounded=0;sketch=0;jumpStyle=none;orthogonalLoop=1;jettySize=auto;html=1;entryX=0.5;entryY=0;entryDx=0;entryDy=0;entryPerimeter=0;startArrow=none;startFill=0;endArrow=block;endFill=1;fontColor=#999900;" parent="1" source="2" target="12" edge="1">
                    <mxGeometry relative="1" as="geometry"/>
                </mxCell>
                <mxCell id="82" value="HTTPS" style="edgeLabel;html=1;align=center;verticalAlign=middle;resizable=0;points=[];labelBackgroundColor=#ffffff;" parent="81" vertex="1" connectable="0">
                    <mxGeometry x="-0.3692" y="5" relative="1" as="geometry">
                        <mxPoint as="offset"/>
                    </mxGeometry>
                </mxCell>
                <mxCell id="2" value="users" style="outlineConnect=0;gradientColor=none;fontColor=#545B64;strokeColor=none;fillColor=#879196;dashed=0;verticalLabelPosition=bottom;verticalAlign=top;align=center;html=1;fontSize=12;fontStyle=0;aspect=fixed;shape=mxgraph.aws4.illustration_users;pointerEvents=1" parent="1" vertex="1">
                    <mxGeometry x="174" y="40" width="80" height="80" as="geometry"/>
                </mxCell>
                <mxCell id="73" style="edgeStyle=orthogonalEdgeStyle;rounded=0;sketch=0;jumpStyle=none;orthogonalLoop=1;jettySize=auto;html=1;entryX=0.5;entryY=0;entryDx=0;entryDy=0;entryPerimeter=0;startArrow=none;startFill=0;endArrow=block;endFill=1;fontColor=#999900;" parent="1" source="12" target="59" edge="1">
                    <mxGeometry relative="1" as="geometry">
                        <mxPoint x="404" y="321" as="targetPoint"/>
                    </mxGeometry>
                </mxCell>
                <mxCell id="131" value="api.notenext-app.com" style="edgeLabel;html=1;align=center;verticalAlign=middle;resizable=0;points=[];" parent="73" vertex="1" connectable="0">
                    <mxGeometry x="0.0423" y="1" relative="1" as="geometry">
                        <mxPoint as="offset"/>
                    </mxGeometry>
                </mxCell>
                <mxCell id="118" style="edgeStyle=orthogonalEdgeStyle;rounded=0;orthogonalLoop=1;jettySize=auto;html=1;endArrow=block;endFill=1;" parent="1" source="12" target="117" edge="1">
                    <mxGeometry relative="1" as="geometry">
                        <Array as="points">
                            <mxPoint x="710" y="220"/>
                            <mxPoint x="710" y="220"/>
                        </Array>
                    </mxGeometry>
                </mxCell>
                <mxCell id="130" value="notenext-app.com" style="edgeLabel;html=1;align=center;verticalAlign=middle;resizable=0;points=[];" parent="118" vertex="1" connectable="0">
                    <mxGeometry x="-0.1064" y="2" relative="1" as="geometry">
                        <mxPoint as="offset"/>
                    </mxGeometry>
                </mxCell>
                <mxCell id="119" value="cdn.notenext-app.com" style="edgeStyle=orthogonalEdgeStyle;rounded=0;orthogonalLoop=1;jettySize=auto;html=1;entryX=1;entryY=0.5;entryDx=0;entryDy=0;entryPerimeter=0;endArrow=block;endFill=1;" parent="1" source="12" target="14" edge="1">
                    <mxGeometry relative="1" as="geometry"/>
                </mxCell>
                <mxCell id="12" value="Route53" style="points=[[0,0,0],[0.25,0,0],[0.5,0,0],[0.75,0,0],[1,0,0],[0,1,0],[0.25,1,0],[0.5,1,0],[0.75,1,0],[1,1,0],[0,0.25,0],[0,0.5,0],[0,0.75,0],[1,0.25,0],[1,0.5,0],[1,0.75,0]];outlineConnect=0;gradientColor=#945DF2;gradientDirection=north;fillColor=#5A30B5;strokeColor=#ffffff;dashed=0;verticalLabelPosition=bottom;verticalAlign=top;align=center;html=1;fontSize=12;fontStyle=0;aspect=fixed;shape=mxgraph.aws4.resourceIcon;resIcon=mxgraph.aws4.route_53;fontColor=#000000;labelBackgroundColor=#ffffff;" parent="1" vertex="1">
                    <mxGeometry x="374" y="190" width="60" height="60" as="geometry"/>
                </mxCell>
                <mxCell id="100" style="edgeStyle=orthogonalEdgeStyle;rounded=0;sketch=0;jumpStyle=none;orthogonalLoop=1;jettySize=auto;html=1;entryX=0.5;entryY=1;entryDx=0;entryDy=0;startArrow=block;startFill=1;endArrow=none;endFill=0;fontColor=#000000;exitX=0.5;exitY=1;exitDx=0;exitDy=0;" parent="1" source="117" target="83" edge="1">
                    <mxGeometry relative="1" as="geometry">
                        <Array as="points">
                            <mxPoint x="905" y="400"/>
                            <mxPoint x="1140" y="400"/>
                            <mxPoint x="1140" y="1370"/>
                            <mxPoint x="578" y="1370"/>
                        </Array>
                        <mxPoint x="1002" y="541.0999999999999" as="sourcePoint"/>
                    </mxGeometry>
                </mxCell>
                <mxCell id="120" style="edgeStyle=orthogonalEdgeStyle;rounded=0;orthogonalLoop=1;jettySize=auto;html=1;entryX=0.5;entryY=0;entryDx=0;entryDy=0;entryPerimeter=0;exitX=0.5;exitY=1;exitDx=0;exitDy=0;exitPerimeter=0;" parent="1" source="14" target="59" edge="1">
                    <mxGeometry relative="1" as="geometry">
                        <Array as="points">
                            <mxPoint x="158" y="310"/>
                            <mxPoint x="404" y="310"/>
                        </Array>
                        <mxPoint x="404" y="321" as="targetPoint"/>
                    </mxGeometry>
                </mxCell>
                <mxCell id="14" value="&lt;span style=&quot;&quot;&gt;CloudFront&lt;/span&gt;" style="points=[[0,0,0],[0.25,0,0],[0.5,0,0],[0.75,0,0],[1,0,0],[0,1,0],[0.25,1,0],[0.5,1,0],[0.75,1,0],[1,1,0],[0,0.25,0],[0,0.5,0],[0,0.75,0],[1,0.25,0],[1,0.5,0],[1,0.75,0]];outlineConnect=0;fontColor=#232F3E;gradientColor=#945DF2;gradientDirection=north;fillColor=#5A30B5;strokeColor=#ffffff;dashed=0;verticalLabelPosition=bottom;verticalAlign=top;align=center;html=1;fontSize=12;fontStyle=0;aspect=fixed;shape=mxgraph.aws4.resourceIcon;resIcon=mxgraph.aws4.cloudfront;labelBackgroundColor=#ffffff;" parent="1" vertex="1">
                    <mxGeometry x="127.50000000000011" y="190" width="60" height="60" as="geometry"/>
                </mxCell>
                <mxCell id="31" value="" style="shape=image;verticalLabelPosition=bottom;labelBackgroundColor=#ffffff;verticalAlign=top;aspect=fixed;imageAspect=0;image=data:image/svg+xml,PHN2ZyB4bWxucz0iaHR0cDovL3d3dy53My5vcmcvMjAwMC9zdmciIGhlaWdodD0iMTI4IiB2aWV3Qm94PSIwIDAgMTI4IDEyOCIgd2lkdGg9IjEyOCIgdmVyc2lvbj0iMS4xIj48cGF0aCBkPSJtMzIuMTkxIDk3Ljk1M2MtMC4zNjg2NSAwLTAuNzM1NzggMC4xMDU2LTEuMDU0NyAwLjMxNjQxLTAuMzE4OTEgMC4yMTA4LTAuNjExMzMgMC41NzQzMy0wLjYxMTMzIDEuMDQxIDAgMC4wNjEzNy0wLjAzNjE0IDAuMTk5MiAwLjA4Mzk4IDAuNDM5NDVsLTAuMDMxMjUtMC4wNzYxNyA2LjQxMDIgMjAuNzk3YzAuMTE0NzUgMC4zOTAxNSAwLjM5MDE5IDAuNjg4MzEgMC42OTkyMiAwLjg1OTM4czAuNjQ5MDggMC4yMzYzMyAwLjk3ODUyIDAuMjM2MzNjMC43MDA0NSAwIDEuNDY5Ni0wLjMzNDI4IDEuNzA1MS0xLjA4Nzl2LTAuMDAybDYuNDA0My0yMC44NzV2LTAuMDc2MTdjMCAwLjEwNTMgMC4wMzEyNSAwLjA0NDQ0IDAuMDMxMjUtMC4xODM1OSAwLTAuNDc0NjMtMC4zMDMxNC0wLjgyMzYxLTAuNjI2OTUtMS4wNDMtMC4zMjM4Mi0wLjIxOTM2LTAuNzA1MDQtMC4zNDU3LTEuMTAxNi0wLjM0NTctMC40ODkwMyAwLTEuMDUxNiAwLjI5NzQ0LTEuMjQwMiAwLjg2MzI4bC0wLjAwMzkgMC4wMDU5LTUuMTY5OSAxNy4yNTQtNS4xODk1LTE3LjIyM2MtMC4wNzY5NC0wLjMwNzc0LTAuMjg0MjEtMC41NjU1OC0wLjUyNTM5LTAuNzA4OThzLTAuNTA0MjctMC4xOTE0MS0wLjc1NzgyLTAuMTkxNDF6bTUxLjA1NSAxLjA3MjNjLTEuMDIwNCAwLTEuODgwOSAwLjc4MTctMS44ODA5IDEuNzU5OCAwIDAuOTc4MDYgMC44NDcxMSAxLjc4NzEgMS44ODA5IDEuNzg3MSAxLjAxNDIgMCAxLjgyMDMtMC44MjQyIDEuODIwMy0xLjc4NzEgMC0wLjk2MjkxLTAuODIwMDItMS43NTk4LTEuODIwMy0xLjc1OTh6bS0xNS4wMjkgNi42NTgyYy0zLjQ4ODQgMC02LjM2MTMgMi43OTE1LTYuMzYxMyA2LjE0NjV2My40Mzc1YzAgMS44NzkxIDAuNzQ4NzYgMy40ODk2IDIuMDE5NSA0LjYwMTYgMS4yNzA4IDEuMTExOSAzLjA0NDYgMS43MjY2IDUuMDc4MSAxLjcyNjYgMS41MDIgMCAyLjcyNjItMC4zMzYyOCAzLjYwMTYtMC43OTI5NyAwLjQzNzY2LTAuMjI4MzQgMC43ODkzMy0wLjQ4NDQ4IDEuMDQ4OC0wLjc2MzY3IDAuMjU5NS0wLjI3OTE4IDAuNDUxMTctMC41ODQ3OCAwLjQ1MTE3LTAuOTY2NzktMC4wMDAwMDEtMC4zNTA3Ny0wLjEzNTA5LTAuNjU0NzEtMC4zNTM1Mi0wLjkyNzc0LTAuMjE4NDItMC4yNzMwMy0wLjU2MjQ4LTAuNTIzNDQtMS4wMDU5LTAuNTIzNDQtMC4zMjAyNyAwLTAuNTY2MTQgMC4xMzQ3OS0wLjc3OTMgMC4yNjU2My0wLjIxMzE1IDAuMTMwODMtMC40MTMzNSAwLjI3NTM4LTAuNjU0MyAwLjQxNDA2LTAuNDgxOSAwLjI3NzM2LTEuMTIwNCAwLjU0Njg4LTIuMjQ4IDAuNTQ2ODgtMS4yNTU0IDAtMi4zMDIzLTAuMzU4MDItMy4wMjM0LTAuOTU4OTktMC43MjExNy0wLjYwMDk3LTEuMTQwNi0xLjQzNTMtMS4xNDA2LTIuNTI5M3YtMC42MzY3Mmg2LjQzNTVjMC42ODY0IDAgMS40NDk0IDAuMDAxIDIuMTA5NC0wLjQxOTkzIDAuNjU5OTUtMC40MjEzNSAxLjA2MDUtMS4yNTg4IDEuMDYwNS0yLjUzMzIgMC0zLjUyOTItMi45NDQ3LTYuMDg1OS02LjIzODMtNi4wODU5em0yNC4xODYgMGMtMS44NTQyIDAtMy4yMTc4IDAuNTk5OTctNC4wOTM4IDEuNTAyLTAuODc1OTcgMC45MDE5OC0xLjI1MzkgMi4wNzU0LTEuMjUzOSAzLjE3MTkgMCAxLjM5NzQgMC41NjQ1NCAyLjM5ODkgMS4zNzMgMy4wNDEgMC44MDg1MSAwLjY0MjExIDEuODE0NCAwLjk2NTIyIDIuNzcxNSAxLjI1MzkgMC45NTcxMiAwLjI4ODY5IDEuODczMiAwLjU0NDkgMi40ODgzIDAuOTIzODMgMC42MTUxIDAuMzc4OTQgMC45NDUzMSAwLjc4ODg0IDAuOTQ1MzEgMS42NTQzIDAgMC40NjQ1Ni0wLjEzOTYgMC44MzQzMy0wLjUxNzU4IDEuMTM2Ny0wLjM3Nzk4IDAuMzAyMzgtMS4wNDkgMC41NDEwMS0yLjE0MjYgMC41NDEwMS0xLjI5MzcgMC0yLjAxNjctMC4zMTkwOS0yLjU0My0wLjY0NDUzLTAuMjYzMTItMC4xNjI3Mi0wLjQ3NTEyLTAuMzMxNTgtMC42OTMzNi0wLjQ4MjQycy0wLjQ2NTcxLTAuMzE0NDUtMC44MTI1LTAuMzE0NDVjLTAuNDE3MzkgMC0wLjcyNTE0IDAuMjU3MTQtMC45MTIxMSAwLjUyMzQzLTAuMTg2OTcgMC4yNjYzLTAuMjk0OTIgMC41Njg4NC0wLjI5NDkyIDAuODk2NDkgMCAwLjQwNTEyIDAuMTk3MTYgMC43NjEzMSAwLjQ3NjU2IDEuMDcwMyAwLjI3OTQxIDAuMzA5MDEgMC42NTc0NiAwLjU4Mzk4IDEuMTIxMSAwLjgyNDIyIDAuOTI3MjYgMC40ODA0OSAyLjIwNDEgMC44MTQ0NSAzLjcyMDcgMC44MTQ0NSAxLjY0NjUgMCAzLjAwMDYtMC40MDE5IDMuOTU5LTEuMTgxNiAwLjk1ODM0LTAuNzc5NzQgMS40ODA1LTEuOTM4OSAxLjQ4MDUtMy4yNzU0IDAtMS41MDk2LTAuNTQ4NzYtMi41OTUxLTEuMzU3NC0zLjMxMjUtMC44MDg2Ny0wLjcxNzM2LTEuODI5Ni0xLjA4NzItMi44MDA4LTEuMzg0OC0wLjk3MTE1LTAuMjk3NjEtMS45MDU3LTAuNTI5MjYtMi41MzEyLTAuODU1NDctMC42MjU1Mi0wLjMyNjIyLTAuOTE5OTItMC42MjcxMy0wLjkxOTkyLTEuMzIwMyAwLTAuMzc0OTYgMC4xNS0wLjg0NjU3IDAuNTMxMjUtMS4yMTg3IDAuMzgxMjUtMC4zNzIxOCAxLjAwMzItMC42NzM4MyAyLjAzNzEtMC42NzM4MyAwLjgyNjA2IDAgMS40NDAxIDAuMTg5NyAxLjkzMTYgMC4zOTA2MiAwLjI0NTc3IDAuMTAwNDYgMC40NTkzOSAwLjIwNTQyIDAuNjYyMTEgMC4yOTI5NyAwLjIwMjcyIDAuMDg3NSAwLjM4OTY0IDAuMTczODMgMC42NTgyIDAuMTczODMgMC40ODUwNSAwIDAuODE3NDgtMC4zMTk5NyAxLjAxNTYtMC42MTcxOSAwLjE5ODE1LTAuMjk3MjIgMC4zMTI1LTAuNTkwMzYgMC4zMTI1LTAuOTI1NzggMC0wLjQyMDIxLTAuMjYxNDctMC43MTgwMi0wLjU1MDc4LTAuOTQxNDFzLTAuNjUxOTgtMC40MDA3Mi0xLjA3MjMtMC41NTQ2OGMtMC44NDA1Ny0wLjMwNzk0LTEuOTEyNi0wLjUwNzgyLTIuOTg4My0wLjUwNzgyem0tNDMuODU3IDAuMTg1NTVjLTAuODExMDUgMC0xLjUxMTcgMC41MDg1NC0xLjUxMTcgMS4yNjU2djguMTkzNGMwIDMuMzIzOCAyLjgyNTggNi4yNjc2IDYuMzMwMSA2LjI2NzYgMy40NDUyIDAgNi4zMzAxLTIuOTA5MiA2LjMzMDEtNi4yNjc2di04LjIyMjZjMC0wLjM3ODkzLTAuMjA4NDktMC43MDc1OS0wLjQ4MjQyLTAuOTE2MDItMC4yNzM5My0wLjIwODQyLTAuNjIyLTAuMzIwMzEtMS0wLjMyMDMxcy0wLjcyODAxIDAuMTEwNDMtMS4wMDc4IDAuMzE0NDVjLTAuMjc5ODEgMC4yMDQwMy0wLjUwMzkxIDAuNTMwMTMtMC41MDM5MSAwLjkyMTg4djguMjIyNmMwIDEuNzQyMy0xLjUxODMgMy40Mjc3LTMuMzM1OSAzLjQyNzctMS44NDc4IDAtMy4zMzU5LTEuNzE1NC0zLjMzNTktMy40Mjc3di04LjE5MzRjMC0wLjM5MjQ0LTAuMjE0MzUtMC42OTUtMC40ODA0Ny0wLjkxMDE2cy0wLjYxMzctMC4zNTU0Ny0xLjAwMi0wLjM1NTQ3em0zNC43MDEgMGMtMC4zNzkyMSAwLTAuNzMwNDkgMC4wOTc2LTEuMDA5OCAwLjMwODU5LTAuMjc5MjggMC4yMTEwMS0wLjQ3MDcgMC41NTgxOS0wLjQ3MDcgMC45Mjc3NHYxNS4wOTZjMCAxLjEzMjgtMC4wNzkzOSAyLjA4My0wLjMyODEyIDIuNjU4Mi0wLjI0ODczIDAuNTc1MTktMC41NDIyMiAwLjgzMDA3LTEuMzgwOSAwLjgzMDA3LTAuNzQwOTMgMC0xLjM1OTQgMC42NDczNi0xLjM1OTQgMS40MjE5IDAgMC4zMjE5MiAwLjEwMzg0IDAuNjc1MjggMC4zNjcxOSAwLjk1MTE3czAuNjcyMTcgMC40Mzc1IDEuMTQ0NSAwLjQzNzVjMS41OTQzIDAgMi44MTQxLTAuNzA2OTUgMy41NDEtMS44NTU1IDAuNzI2OTYtMS4xNDg1IDEuMDA5OC0yLjY4NDkgMS4wMDk4LTQuNDQzNHYtMTUuMDk2YzAtMC4zOTMzNi0wLjIyNDcyLTAuNzM1Ni0wLjUwOTc3LTAuOTM3NS0wLjI4NTA0LTAuMjAxOTEtMC42MzUxNi0wLjI5ODgzLTEuMDAzOS0wLjI5ODgzem0tMTUuMDYxIDIuNDcyN2MxLjk5MTMgMCAzLjMzNTkgMS42NjcxIDMuMzM1OSAzLjM2NTIgMCAwLjE4NTAyLTAuMDE5OTIgMC4zMDYxOS0wLjAzOTA2IDAuMzYxMzMtMC4wMTkxNCAwLjA1NTEtMC4wMTczMyAwLjA0OC0wLjA0NDkyIDAuMDY2NC0wLjA1NTE4IDAuMDM2OC0wLjM2MjUxIDAuMTE1MjMtMC45NTExNyAwLjExNTIzaC01LjYzNjd2LTAuNjY2MDJjMC0xLjc3NzIgMS40ODQ1LTMuMjQyMiAzLjMzNTktMy4yNDIyem05LjUxMTcgOS4zNzExYy0xLjA4NzcgMC0xLjkxMjEgMC45MDAwNS0xLjkxMjEgMS45NDE0IDAgMS4wMDAzIDAuODEyMDYgMS45MTIxIDEuOTEyMSAxLjkxMjEgMS4wNDIgMCAxLjg4MDktMC44ODQwNSAxLjg4MDktMS45MTIxIDAtMS4wNjctMC44NTI4LTEuOTQxNC0xLjg4MDktMS45NDE0eiIgZmlsbD0iIzM1NDk1ZSIgc3R5bGU9ImJsb2NrLXByb2dyZXNzaW9uOnRiO2NvbG9yLXJlbmRlcmluZzphdXRvO2ltYWdlLXJlbmRlcmluZzphdXRvO2lzb2xhdGlvbjphdXRvO21peC1ibGVuZC1tb2RlOm5vcm1hbDtzaGFwZS1yZW5kZXJpbmc6YXV0bztzb2xpZC1jb2xvcjojMDAwMDAwO3RleHQtZGVjb3JhdGlvbi1jb2xvcjojMDAwMDAwO3RleHQtZGVjb3JhdGlvbi1saW5lOm5vbmU7dGV4dC1kZWNvcmF0aW9uLXN0eWxlOnNvbGlkO3RleHQtaW5kZW50OjA7dGV4dC10cmFuc2Zvcm06bm9uZTt3aGl0ZS1zcGFjZTpub3JtYWwiLz48ZyB0cmFuc2Zvcm09Im1hdHJpeCguODU3NzEgMCAwIC44NTc3MSA5LjEwNTkgLTcuNjYyOCkiPjxwYXRoIGZpbGw9Im5vbmUiIGQ9Im0tMi4zMTI1ZS04IDguOTMzNyA0OS44NTQgMC4xNTg2IDE0LjE2NyAyNC40NyAxNC40MzItMjQuNDcgNDkuNTQ3LTAuMTU3NC02My44MzQgMTEwLjE0em0xMjYuOTggMC42Mzc0LTI0LjM2IDAuMDIwNy0zOC40NzYgNjYuMDUyLTM4LjQ1My02Ni4wNTItMjQuNzQ5LTAuMDE5NiA2My4yMTEgMTA3Ljg5em0tMjUuMTQ5LTAuMDA4LTIyLjc0NSAwLjE2NzU4LTE1LjA1MyAyNC42NDctMTQuODE3LTI0LjY0Ny0yMi43OTQtMC4xNjc5IDM3LjczMSA2NC40NzZ6TTI1Ljk5NyA5LjM5MjlsMjMuMDAyIDAuMDA4NyAxNS4wMzYgMjQuOTU4IDE0Ljk4My0yNC45NTYgMjIuOTgyLTAuMDA2MS0zNy44NSA2NS42NTUiLz48cGF0aCBmaWxsPSIjMzU0OTVlIiBkPSJtMjUuOTk3IDkuMzkyOSAyMy4wMDIgMC4wMDg3IDE1LjAzNiAyNC45NTggMTQuOTgzLTI0Ljk1NiAyMi45ODItMC4wMDYxLTM3Ljg1IDY1LjY1NXoiLz48cGF0aCBmaWxsPSIjNDFiODgzIiBkPSJtMC45MTA2OCA5LjU2ODYgMjUuMDY2LTAuMTcxMSAzOC4xNTEgNjUuNjU4IDM3Ljg1Mi02NS42NTQgMjUuMTEgMC4wMjYzLTYyLjk2NiAxMDguMDZ6Ii8+PC9nPjwvc3ZnPg==;" parent="1" vertex="1">
                    <mxGeometry x="890" y="261" width="60" height="60" as="geometry"/>
                </mxCell>
                <mxCell id="34" value="ECS(Fargate)" style="points=[[0,0,0],[0.25,0,0],[0.5,0,0],[0.75,0,0],[1,0,0],[0,1,0],[0.25,1,0],[0.5,1,0],[0.75,1,0],[1,1,0],[0,0.25,0],[0,0.5,0],[0,0.75,0],[1,0.25,0],[1,0.5,0],[1,0.75,0]];outlineConnect=0;gradientColor=#F78E04;gradientDirection=north;fillColor=#D05C17;strokeColor=#ffffff;dashed=0;verticalLabelPosition=middle;verticalAlign=middle;align=left;html=1;fontSize=12;fontStyle=0;aspect=fixed;shape=mxgraph.aws4.resourceIcon;resIcon=mxgraph.aws4.fargate;labelBackgroundColor=none;labelPosition=right;fontColor=#999900;" parent="1" vertex="1">
                    <mxGeometry x="120" y="600" width="50" height="50" as="geometry"/>
                </mxCell>
                <mxCell id="55" value="image file" style="outlineConnect=0;fontColor=#232F3E;gradientColor=none;fillColor=#D05C17;strokeColor=none;dashed=0;verticalLabelPosition=bottom;verticalAlign=top;align=center;html=1;fontSize=12;fontStyle=0;aspect=fixed;pointerEvents=1;shape=mxgraph.aws4.container_registry_image;labelBackgroundColor=none;" parent="1" vertex="1">
                    <mxGeometry x="872.5" y="620" width="35.5" height="35.5" as="geometry"/>
                </mxCell>
                <mxCell id="92" style="edgeStyle=orthogonalEdgeStyle;rounded=0;sketch=0;jumpStyle=none;orthogonalLoop=1;jettySize=auto;html=1;entryX=0;entryY=0.5;entryDx=0;entryDy=0;startArrow=none;startFill=0;endArrow=block;endFill=1;fontColor=#000000;" parent="1" source="56" target="83" edge="1">
                    <mxGeometry relative="1" as="geometry"/>
                </mxCell>
                <mxCell id="132" value="Push &amp;amp; Merge" style="edgeLabel;html=1;align=center;verticalAlign=middle;resizable=0;points=[];" parent="92" vertex="1" connectable="0">
                    <mxGeometry x="-0.1243" relative="1" as="geometry">
                        <mxPoint as="offset"/>
                    </mxGeometry>
                </mxCell>
                <mxCell id="56" value="Developer" style="outlineConnect=0;fontColor=#232F3E;gradientColor=none;fillColor=#232F3E;strokeColor=none;dashed=0;verticalLabelPosition=bottom;verticalAlign=top;align=center;html=1;fontSize=12;fontStyle=0;aspect=fixed;pointerEvents=1;shape=mxgraph.aws4.user;labelBackgroundColor=none;" parent="1" vertex="1">
                    <mxGeometry x="200" y="1243.5" width="75" height="75" as="geometry"/>
                </mxCell>
                <mxCell id="71" style="edgeStyle=orthogonalEdgeStyle;rounded=0;sketch=0;jumpStyle=none;orthogonalLoop=1;jettySize=auto;html=1;exitX=0.5;exitY=1;exitDx=0;exitDy=0;exitPerimeter=0;startArrow=none;startFill=0;endArrow=block;endFill=1;fontColor=#999900;" parent="1" source="59" target="88" edge="1">
                    <mxGeometry relative="1" as="geometry"/>
                </mxCell>
                <mxCell id="59" value="Internet Gateway" style="outlineConnect=0;dashed=0;verticalLabelPosition=bottom;verticalAlign=top;align=center;html=1;shape=mxgraph.aws3.internet_gateway;fillColor=#F58534;gradientColor=none;labelBackgroundColor=#ffffff;strokeColor=#999900;fontColor=#999900;" parent="1" vertex="1">
                    <mxGeometry x="374" y="331" width="60" height="60" as="geometry"/>
                </mxCell>
                <mxCell id="66" value="Amplify" style="points=[[0,0,0],[0.25,0,0],[0.5,0,0],[0.75,0,0],[1,0,0],[0,1,0],[0.25,1,0],[0.5,1,0],[0.75,1,0],[1,1,0],[0,0.25,0],[0,0.5,0],[0,0.75,0],[1,0.25,0],[1,0.5,0],[1,0.75,0]];outlineConnect=0;fontColor=#232F3E;gradientColor=#F54749;gradientDirection=north;fillColor=#C7131F;strokeColor=#ffffff;dashed=0;verticalLabelPosition=bottom;verticalAlign=top;align=center;html=1;fontSize=12;fontStyle=0;aspect=fixed;shape=mxgraph.aws4.resourceIcon;resIcon=mxgraph.aws4.amplify;labelBackgroundColor=none;" parent="1" vertex="1">
                    <mxGeometry x="810" y="190" width="60" height="60" as="geometry"/>
                </mxCell>
                <mxCell id="13" value="&amp;nbsp;S3" style="points=[[0,0,0],[0.25,0,0],[0.5,0,0],[0.75,0,0],[1,0,0],[0,1,0],[0.25,1,0],[0.5,1,0],[0.75,1,0],[1,1,0],[0,0.25,0],[0,0.5,0],[0,0.75,0],[1,0.25,0],[1,0.5,0],[1,0.75,0]];outlineConnect=0;fontColor=#232F3E;gradientColor=#60A337;gradientDirection=north;fillColor=#277116;strokeColor=#ffffff;dashed=0;verticalLabelPosition=middle;verticalAlign=middle;align=left;html=1;fontSize=12;fontStyle=0;aspect=fixed;shape=mxgraph.aws4.resourceIcon;resIcon=mxgraph.aws4.s3;labelPosition=right;" parent="1" vertex="1">
                    <mxGeometry x="827" y="540" width="60" height="60" as="geometry"/>
                </mxCell>
                <mxCell id="93" style="edgeStyle=orthogonalEdgeStyle;rounded=0;sketch=0;jumpStyle=none;orthogonalLoop=1;jettySize=auto;html=1;exitX=1;exitY=0.5;exitDx=0;exitDy=0;entryX=0;entryY=0.5;entryDx=0;entryDy=0;startArrow=none;startFill=0;endArrow=block;endFill=1;fontColor=#000000;" parent="1" source="83" target="84" edge="1">
                    <mxGeometry relative="1" as="geometry"/>
                </mxCell>
                <mxCell id="83" value="" style="shape=image;verticalLabelPosition=bottom;labelBackgroundColor=#FFFFFF;verticalAlign=top;aspect=fixed;imageAspect=0;image=data:image/svg+xml,PHN2ZyB4bWxucz0iaHR0cDovL3d3dy53My5vcmcvMjAwMC9zdmciIHZpZXdCb3g9IjAgMCAxMjggMTI4Ij48ZyBmaWxsPSIjMTgxNjE2Ij48cGF0aCBmaWxsLXJ1bGU9ImV2ZW5vZGQiIGNsaXAtcnVsZT0iZXZlbm9kZCIgZD0iTTY0IDEuNTEyYy0yMy40OTMgMC00Mi41NDUgMTkuMDQ3LTQyLjU0NSA0Mi41NDUgMCAxOC43OTcgMTIuMTkgMzQuNzQ1IDI5LjA5NSA0MC4zNyAyLjEyNi4zOTQgMi45MDctLjkyMyAyLjkwNy0yLjA0NyAwLTEuMDE0LS4wNC00LjM2Ni0uMDU4LTcuOTItMTEuODM3IDIuNTczLTE0LjMzNC01LjAyLTE0LjMzNC01LjAyLTEuOTM1LTQuOTE4LTQuNzI0LTYuMjI2LTQuNzI0LTYuMjI2LTMuODYtMi42NC4yOS0yLjU4Ni4yOS0yLjU4NiA0LjI3My4zIDYuNTIzIDQuMzg1IDYuNTIzIDQuMzg1IDMuNzk0IDYuNTA0IDkuOTUzIDQuNjIzIDEyLjM4IDMuNTM2LjM4My0yLjc1IDEuNDg1LTQuNjI4IDIuNzAyLTUuNjktOS40NS0xLjA3NS0xOS4zODQtNC43MjQtMTkuMzg0LTIxLjAyNiAwLTQuNjQ1IDEuNjYyLTguNDQgNC4zODQtMTEuNDItLjQ0Mi0xLjA3Mi0xLjg5OC01LjQuNDEyLTExLjI2IDAgMCAzLjU3Mi0xLjE0MiAxMS43IDQuMzYzIDMuMzk1LS45NDMgNy4wMzUtMS40MTYgMTAuNjUtMS40MzIgMy42MTYuMDE3IDcuMjU4LjQ5IDEwLjY1OCAxLjQzMiA4LjEyLTUuNTA0IDExLjY4OC00LjM2MiAxMS42ODgtNC4zNjIgMi4zMTYgNS44Ni44NiAxMC4xODcuNDE4IDExLjI2IDIuNzI4IDIuOTc4IDQuMzc4IDYuNzc0IDQuMzc4IDExLjQyIDAgMTYuMzQtOS45NTMgMTkuOTM4LTE5LjQyNyAyMC45OSAxLjUyNiAxLjMyIDIuODg2IDMuOTEgMi44ODYgNy44OCAwIDUuNjkyLS4wNDggMTAuMjczLS4wNDggMTEuNjc0IDAgMS4xMy43NjYgMi40NTggMi45MjIgMi4wNCAxNi44OTYtNS42MzIgMjkuMDctMjEuNTc0IDI5LjA3LTQwLjM2NUMxMDYuNTQ1IDIwLjU2IDg3LjQ5NyAxLjUxMiA2NCAxLjUxMnoiLz48cGF0aCBkPSJNMzcuNTcgNjIuNTk2Yy0uMDk1LjIxMi0uNDI4LjI3NS0uNzMuMTMtLjMxLS4xNC0uNDgyLS40MjctLjM4Mi0uNjQuMDktLjIxNi40MjQtLjI3Ny43MzMtLjEzMi4zMS4xNC40ODYuNDMuMzguNjQyem0tLjUyNC0uMzg4TTM5LjI5MyA2NC41MmMtLjIwMy4xODctLjYuMS0uODctLjE5OC0uMjc4LS4yOTctLjMzLS42OTQtLjEyNC0uODg0LjIwOC0uMTg4LjU5My0uMS44Ny4xOTcuMjguMy4zMzUuNjkzLjEyMy44ODR6bS0uNDA2LS40MzdNNDAuOTcgNjYuOTY4Yy0uMjYuMTgyLS42ODcuMDEyLS45NS0uMzY3LS4yNjItLjM3Ny0uMjYyLS44My4wMDUtMS4wMTMuMjY0LS4xODIuNjg0LS4wMTguOTUuMzU3LjI2Mi4zODUuMjYyLjg0LS4wMDUgMS4wMjR6bTAgME00My4yNjggNjkuMzM2Yy0uMjMzLjI1Ny0uNzMuMTg4LTEuMDkzLS4xNjMtLjM3Mi0uMzQzLS40NzUtLjgzLS4yNDItMS4wODcuMjM3LS4yNTcuNzM2LS4xODUgMS4xMDIuMTYzLjM3LjM0Mi40ODIuODMuMjMzIDEuMDg2em0wIDBNNDYuNDQgNzAuNzFjLS4xMDQuMzM0LS41ODIuNDg1LTEuMDY0LjM0NC0uNDgyLS4xNDYtLjc5Ni0uNTM2LS43LS44NzIuMS0uMzM2LjU4Mi0uNDkzIDEuMDY3LS4zNDIuNDguMTQ0Ljc5NS41My42OTYuODd6bTAgME00OS45MiA3MC45NjVjLjAxMy4zNS0uMzk2LjY0Mi0uOTAyLjY0OC0uNTA4LjAxMi0uOTItLjI3Mi0uOTI2LS42MTggMC0uMzU0LjQtLjY0Mi45MDgtLjY1LjUwNi0uMDEuOTIuMjcyLjkyLjYyem0wIDBNNTMuMTYgNzAuNDE0Yy4wNi4zNDItLjI5LjY5NC0uNzkzLjc4Ny0uNDk0LjA5Mi0uOTUtLjEyLTEuMDE0LS40Ni0uMDYtLjM1LjI5Ny0uNy43OS0uNzkyLjUwMy0uMDg4Ljk1My4xMTggMS4wMTcuNDY2em0wIDAiLz48L2c+PGcgZmlsbD0iIzEwMEUwRiI+PHBhdGggZD0iTTI0Ljg1NSAxMDguMzAyaC0xMC43YS41LjUgMCAwIDAtLjUuNXY1LjIzMmEuNS41IDAgMCAwIC41LjVoNC4xNzN2Ni41cy0uOTM3LjMyLTMuNTMuMzJjLTMuMDU2IDAtNy4zMjctMS4xMTYtNy4zMjctMTAuNTA4IDAtOS4zOTMgNC40NDgtMTAuNjMgOC42MjQtMTAuNjMgMy42MTQgMCA1LjE3LjYzNiA2LjE2Mi45NDMuMzEuMDk0LjYtLjIxNi42LS40OTJsMS4xOTMtNS4wNTVhLjQ2OC40NjggMCAwIDAtLjE5Mi0uMzljLS40MDMtLjI4OC0yLjg1Ny0xLjY2LTkuMDU4LTEuNjYtNy4xNDQgMC0xNC40NzIgMy4wMzgtMTQuNDcyIDE3LjY1IDAgMTQuNjEgOC4zOSAxNi43ODcgMTUuNDYgMTYuNzg3IDUuODU0IDAgOS40MDUtMi41MDIgOS40MDUtMi41MDIuMTQ2LS4wOC4xNjItLjI4NS4xNjItLjM4di0xNi4zMTZhLjUuNSAwIDAgMC0uNS0uNXpNNzkuNTA2IDk0LjgxSDczLjQ4YS41LjUgMCAwIDAtLjQ5OC41MDNsLjAwMiAxMS42NDRoLTkuMzkyVjk1LjMxM2EuNS41IDAgMCAwLS40OTctLjUwM0g1Ny4wN2EuNS41IDAgMCAwLS40OTguNTAzdjMxLjUzYzAgLjI3Ny4yMjQuNTAzLjQ5OC41MDNoNi4wMjVhLjUuNSAwIDAgMCAuNDk3LS41MDR2LTEzLjQ4Nmg5LjM5MmwtLjAxNiAxMy40ODZjMCAuMjc4LjIyNC41MDQuNS41MDRoNi4wMzhhLjUuNSAwIDAgMCAuNDk3LS41MDR2LTMxLjUzYzAtLjI3OC0uMjItLjUwMi0uNDk3LS41MDJ6TTMyLjM0IDk1LjUyN2MtMi4xNDQgMC0zLjg4NCAxLjc1My0zLjg4NCAzLjkyMyAwIDIuMTY3IDEuNzQgMy45MjUgMy44ODQgMy45MjUgMi4xNDYgMCAzLjg4NS0xLjc1OCAzLjg4NS0zLjkyNSAwLTIuMTctMS43NC0zLjkyMy0zLjg4NS0zLjkyM3pNMzUuMjk2IDEwNS4xMzVIMjkuMjljLS4yNzYgMC0uNTIyLjI4NC0uNTIyLjU2djIwLjg1MmMwIC42MTMuMzgyLjc5NS44NzYuNzk1aDUuNDFjLjU5NSAwIC43NC0uMjkyLjc0LS44MDV2LTYuMzQ2LTE0LjU1M2EuNS41IDAgMCAwLS40OTgtLjUwMnpNMTAyLjkwMiAxMDUuMTgyaC01Ljk4YS41LjUgMCAwIDAtLjQ5Ni41MDR2MTUuNDZzLTEuNTIgMS4xMS0zLjY3NSAxLjExLTIuNzI3LS45NzctMi43MjctMy4wODh2LTEzLjQ4MmEuNS41IDAgMCAwLS40OTctLjUwNGgtNi4wNjhhLjUwMi41MDIgMCAwIDAtLjQ5OC41MDR2MTQuNTAyYzAgNi4yNyAzLjQ5NSA3LjgwNCA4LjMwMiA3LjgwNCAzLjk0NCAwIDcuMTI0LTIuMTggNy4xMjQtMi4xOHMuMTUgMS4xNS4yMiAxLjI4NWMuMDcuMTM2LjI0Ny4yNzMuNDQuMjczbDMuODYtLjAxN2EuNTAyLjUwMiAwIDAgMCAuNS0uNTA0bC0uMDAzLTIxLjE2NmEuNTA0LjUwNCAwIDAgMC0uNS0uNTAyek0xMTkuMjQ0IDEwNC40NzRjLTMuMzk2IDAtNS43MDYgMS41MTUtNS43MDYgMS41MTVWOTUuMzEyYS41LjUgMCAwIDAtLjQ5Ny0uNTAzSDEwN2EuNS41IDAgMCAwLS41LjUwM3YzMS41M2EuNS41IDAgMCAwIC41LjUwM2g0LjE5MmMuMTkgMCAuMzMyLS4wOTcuNDM3LS4yNjguMTAzLS4xNy4yNTQtMS40NTQuMjU0LTEuNDU0czIuNDcgMi4zNCA3LjE0OCAyLjM0YzUuNDkgMCA4LjY0LTIuNzg0IDguNjQtMTIuNTAycy01LjAzLTEwLjk4OC04LjQyOC0xMC45ODh6bS0yLjM2IDE3Ljc2NGMtMi4wNzMtLjA2My0zLjQ4LTEuMDA0LTMuNDgtMS4wMDR2LTkuOTg1czEuMzg4LS44NSAzLjA5LTEuMDA0YzIuMTUzLS4xOTMgNC4yMjguNDU4IDQuMjI4IDUuNTk0IDAgNS40MTctLjkzNSA2LjQ4Ni0zLjgzNyA2LjM5OHpNNTMuMTk1IDEyMi4xMmMtLjI2MyAwLS45MzcuMTA3LTEuNjMuMTA3LTIuMjIgMC0yLjk3My0xLjAzMi0yLjk3My0yLjM2OHYtOC44NjZoNC41MmEuNS41IDAgMCAwIC41LS41MDR2LTQuODU2YS41LjUgMCAwIDAtLjUtLjUwMmgtNC41MmwtLjAwNy01Ljk3YzAtLjIyNy0uMTE2LS4zNC0uMzc4LS4zNGgtNi4xNmMtLjIzOCAwLS4zNjcuMTA2LS4zNjcuMzM1djYuMTdzLTMuMDg3Ljc0NS0zLjI5NS44MDVhLjUuNSAwIDAgMC0uMzYuNDh2My44NzdhLjUuNSAwIDAgMCAuNDk3LjUwM2gzLjE1OHY5LjMyOGMwIDYuOTMgNC44NiA3LjYxIDguMTQgNy42MSAxLjQ5NyAwIDMuMjktLjQ4IDMuNTg2LS41OS4xOC0uMDY3LjI4My0uMjUyLjI4My0uNDUzbC4wMDQtNC4yNjVhLjUxLjUxIDAgMCAwLS41LS41MDJ6Ii8+PC9nPjwvc3ZnPg==;" parent="1" vertex="1">
                    <mxGeometry x="525" y="1230" width="105" height="105" as="geometry"/>
                </mxCell>
                <mxCell id="94" style="edgeStyle=orthogonalEdgeStyle;rounded=0;sketch=0;jumpStyle=none;orthogonalLoop=1;jettySize=auto;html=1;startArrow=none;startFill=0;endArrow=block;endFill=1;fontColor=#000000;" parent="1" source="84" target="85" edge="1">
                    <mxGeometry relative="1" as="geometry"/>
                </mxCell>
                <mxCell id="84" value="[Test &amp; Deploy Backend]" style="shape=image;verticalLabelPosition=bottom;labelBackgroundColor=#ffffff;verticalAlign=top;aspect=fixed;imageAspect=0;image=data:image/svg+xml,PHN2ZyB4bWxucz0iaHR0cDovL3d3dy53My5vcmcvMjAwMC9zdmciIHdpZHRoPSIxMjAiIGhlaWdodD0iNjAiIGZpbGw9IiMxNjE2MTYiIHZpZXdCb3g9IjAgMCAxMjAgNjAiPjxwYXRoIGQ9Ik00OS45MDIgMzQuNzZoLTEuNTI0Yy0uMTAyIDAtLjE5OC4wNDgtLjI2LjEzLS44ODUgMS4zMDgtMi4zOCAyLjE2OC00LjA4IDIuMTY4LTIuNzIgMC00LjkyMy0yLjIwNC00LjkyMy00LjkyM3MyLjIwNC00LjkyMyA0LjkyMy00LjkyM2E0LjkyIDQuOTIgMCAwIDEgNC4wOCAyLjE2OWMuMDYyLjA4LjE1OC4xMy4yNi4xM2gxLjUyNGEuMzMuMzMgMCAwIDAgLjI5My0uNDc1IDYuODkgNi44OSAwIDAgMC02LjE1Ni0zLjc5MmMtMy44MDYgMC02Ljg5MyAzLjA4Ni02Ljg5MyA2Ljg5M3MzLjA4NiA2Ljg5MyA2Ljg5MyA2Ljg5M2E2Ljg5IDYuODkgMCAwIDAgNi4xNTUtMy43OTJjLjAyNC0uMDQ2LjAzNi0uMDk2LjAzNi0uMTQ3YS4zMy4zMyAwIDAgMC0uMzI5LS4zMjh6bTQuNTk1LTExLjgxNmMwIDEuNzUtMi42MjYgMS43NS0yLjYyNiAwczIuNjI2LTEuNzUgMi42MjYgMHpNNTQuMTcgMzguMzd2LTEyLjhINTIuMnYxMi44YS4zMy4zMyAwIDAgMCAuMzI4LjMyOGgxLjMxM2EuMzMuMzMgMCAwIDAgLjMyOC0uMzI4em04LjU0LTEzLjEyYy0xLjk4Ni4wOTQtMy41NzMgMS4wNDMtNC42IDIuNDkydi0xLjg0NGEuMzMuMzMgMCAwIDAtLjMyOC0uMzI4SDU2LjQ3YS4zMy4zMyAwIDAgMC0uMzI4LjMyOFYzOC4zN2MwIC4xOC4xNDYuMzI4LjMyOC4zMjhoMS4zMTNhLjMzLjMzIDAgMCAwIC4zMjgtLjMyOHYtNi4yMzZjMC0yLjYgMi4wMy00Ljc0MyA0LjU5NS00LjkxMmEuMzMuMzMgMCAwIDAgLjMyOS0uMzI5di0xLjMxNmEuMzMuMzMgMCAwIDAtLjMyMy0uMzI4em0xMy4wOCA5LjVoLTEuNTI0Yy0uMTAyIDAtLjE5OC4wNDgtLjI2LjEzLS44ODUgMS4zMDgtMi4zOCAyLjE2OC00LjA4IDIuMTY4LTIuNzIgMC00LjkyMy0yLjIwNC00LjkyMy00LjkyM3MyLjIwNC00LjkyMyA0LjkyMy00LjkyM2MxLjY5OCAwIDMuMTk0Ljg2IDQuMDggMi4xNy4wNjIuMDguMTU4LjEzLjI2LjEzSDc1LjhhLjMzLjMzIDAgMCAwIC4zMjktLjMyOC4zMi4zMiAwIDAgMC0uMDM2LS4xNDcgNi44OSA2Ljg5IDAgMCAwLTYuMTU1LTMuNzkyYy0zLjgwNyAwLTYuODkzIDMuMDg2LTYuODkzIDYuODkzczMuMDg2IDYuODkzIDYuODkzIDYuODkzYTYuODkgNi44OSAwIDAgMCA2LjE1NS0zLjc5MmMuMDI0LS4wNDYuMDM2LS4wOTYuMDM2LS4xNDdhLjMzLjMzIDAgMCAwLS4zMjktLjMyOHptMy45NC0xMy40NTdoLTEuMzEzYS4zMy4zMyAwIDAgMC0uMzI4LjMyOHYxNi43NGEuMzMuMzMgMCAwIDAgLjMyOC4zMjhoMS4zMTNhLjMzLjMzIDAgMCAwIC4zMjgtLjMyOFYyMS42M2EuMzMuMzMgMCAwIDAtLjMyOC0uMzI4em05LjIgMy45NGMtMy44MDcgMC02Ljg5MyAzLjA4Ni02Ljg5MyA2Ljg5M3MzLjA4NiA2Ljg5MyA2Ljg5MyA2Ljg5M2E2Ljg5IDYuODkgMCAwIDAgNi4xNTUtMy43OTJjLjExMy0uMjE4LS4wNDctLjQ3OC0uMjkyLS40NzVIOTMuMjZjLS4xMDUgMC0uMjAzLjA1LS4yNjUuMTM1LS44ODUgMS4zMDQtMi4zOCAyLjE2Mi00LjA3NSAyLjE2Mi0yLjQ5NiAwLTQuNTU4LTEuODU4LTQuODgtNC4yNjdoMTEuNDM0YS4zMy4zMyAwIDAgMCAuMzI3LS4zMTJsLjAxLS4zNDVjMC0zLjgwNy0zLjA4Ni02Ljg5My02Ljg5Mi02Ljg5M3ptLTQuNzQ1IDUuNThjLjU3NS0yLjA4IDIuNDgtMy42IDQuNzQ1LTMuNnM0LjE3IDEuNTMgNC43NDUgMy42em0zMC43MDItOS44NDdjLTIuNjI2IDAtMi42MjYgMy45NCAwIDMuOTRzMi42MjYtMy45NCAwLTMuOTR6bTEuNjQgNC41OTV2MTIuOGEuMzMuMzMgMCAwIDEtLjMyOC4zMjhoLTIuNjI2YS4zMy4zMyAwIDAgMS0uMzI4LS4zMjh2LTEyLjh6TTEwNC42NyAzOS4wMjZjMy4yMTggMCA1LjkxNy0yLjIwNSA2LjY3OC01LjE4NWEuMy4zIDAgMCAwIC4wMDgtLjA2Ny4zMy4zMyAwIDAgMC0uMzI4LS4zMjhoLTIuNzc4YS4zMy4zMyAwIDAgMC0uMjk4LjE5MmMtLjU3MiAxLjI0Mi0xLjgyNSAyLjEwNS0zLjI4MiAyLjEwNWEzLjYxIDMuNjEgMCAxIDEgMy4yODEtNS4xMTQuMzMuMzMgMCAwIDAgLjI5OC4xOTFoMi43NzhhLjMzLjMzIDAgMCAwIC4zMjgtLjMyOC4zMi4zMiAwIDAgMC0uMDA4LS4wNjZjLS43Ni0yLjk4LTMuNDYtNS4xODYtNi42NzgtNS4xODYtMy44MDYgMC02Ljg5MyAzLjA4Ni02Ljg5MyA2Ljg5M3MzLjA4NyA2Ljg5MyA2Ljg5MyA2Ljg5M3oiLz48ZyB0cmFuc2Zvcm09Im1hdHJpeCgxLjM5NTcyMiAwIDAgMS4zOTU3MjIgMzguNjA2MTYzIDU5Ljc5NjY1NSkiPjxjaXJjbGUgY3g9Ii0xNC4yNzUiIGN5PSItMjEuMzQ5IiByPSIyLjczIi8+PHBhdGggZD0iTS0xNC4yNzUtMzIuODEzYy01LjM0MiAwLTkuODMgMy42NTQtMTEuMTAzIDguNTk4YS41Ni41NiAwIDAgMC0uMDE5LjEzNmMwIC4zLjI0NC41NDYuNTQ2LjU0Nmg0LjYyM2EuNTQuNTQgMCAwIDAgLjQ5NS0uMzJzLjAwNy0uMDEzLjAxLS4wMmMuOTUzLTIuMDU2IDMuMDM0LTMuNDgzIDUuNDUtMy40ODMgMy4zMTcgMCA2LjAwNiAyLjY4OCA2LjAwNiA2LjAwNXMtMi42ODggNi4wMDUtNi4wMDUgNi4wMDVjLTIuNDE1IDAtNC40OTYtMS40MjctNS40NS0zLjQ4My0uMDAzLS4wMDctLjAxLS4wMi0uMDEtLjAyLS4wODgtLjE5NC0uMjgyLS4zMi0uNDk1LS4zMmgtNC42MjNjLS4zMDIgMC0uNTQ2LjI0NC0uNTQ2LjU0NmEuNTQuNTQgMCAwIDAgLjAxOS4xMzZjMS4yNzMgNC45NDQgNS43NjIgOC41OTggMTEuMTAzIDguNTk4Qy03Ljk0Mi05Ljg5LTIuOC0xNS4wMjItMi44LTIxLjM1M3MtNS4xMzMtMTEuNDY0LTExLjQ2NC0xMS40NjR6Ii8+PC9nPjwvc3ZnPg==;" parent="1" vertex="1">
                    <mxGeometry x="842.5" y="1252.5" width="120" height="60" as="geometry"/>
                </mxCell>
                <mxCell id="116" style="edgeStyle=orthogonalEdgeStyle;rounded=0;sketch=0;jumpStyle=none;orthogonalLoop=1;jettySize=auto;html=1;startArrow=none;startFill=0;endArrow=block;endFill=1;strokeColor=#000000;fontColor=#000000;" parent="1" source="85" target="33" edge="1">
                    <mxGeometry relative="1" as="geometry">
                        <Array as="points">
                            <mxPoint x="903" y="930"/>
                        </Array>
                    </mxGeometry>
                </mxCell>
                <mxCell id="85" value="ECR" style="outlineConnect=0;dashed=0;verticalLabelPosition=bottom;verticalAlign=top;align=center;html=1;shape=mxgraph.aws3.ecr;fillColor=#F58534;gradientColor=none;labelBackgroundColor=#FFFFFF;strokeColor=#999900;fontColor=#000000;" parent="1" vertex="1">
                    <mxGeometry x="872.5" y="990" width="60" height="60" as="geometry"/>
                </mxCell>
                <mxCell id="86" value="CloudWatch" style="points=[[0,0,0],[0.25,0,0],[0.5,0,0],[0.75,0,0],[1,0,0],[0,1,0],[0.25,1,0],[0.5,1,0],[0.75,1,0],[1,1,0],[0,0.25,0],[0,0.5,0],[0,0.75,0],[1,0.25,0],[1,0.5,0],[1,0.75,0]];points=[[0,0,0],[0.25,0,0],[0.5,0,0],[0.75,0,0],[1,0,0],[0,1,0],[0.25,1,0],[0.5,1,0],[0.75,1,0],[1,1,0],[0,0.25,0],[0,0.5,0],[0,0.75,0],[1,0.25,0],[1,0.5,0],[1,0.75,0]];outlineConnect=0;fontColor=#232F3E;gradientColor=#F34482;gradientDirection=north;fillColor=#BC1356;strokeColor=#ffffff;dashed=0;verticalLabelPosition=bottom;verticalAlign=top;align=center;html=1;fontSize=12;fontStyle=0;aspect=fixed;shape=mxgraph.aws4.resourceIcon;resIcon=mxgraph.aws4.cloudwatch_2;labelBackgroundColor=#FFFFFF;" parent="1" vertex="1">
                    <mxGeometry x="1030" y="170" width="60" height="60" as="geometry"/>
                </mxCell>
                <mxCell id="112" style="edgeStyle=orthogonalEdgeStyle;rounded=0;sketch=0;jumpStyle=none;orthogonalLoop=1;jettySize=auto;html=1;startArrow=none;startFill=0;endArrow=block;endFill=1;fontColor=#000000;entryX=1;entryY=0.75;entryDx=0;entryDy=0;entryPerimeter=0;exitX=0.5;exitY=0;exitDx=0;exitDy=0;exitPerimeter=0;" parent="1" source="87" target="12" edge="1">
                    <mxGeometry relative="1" as="geometry">
                        <Array as="points">
                            <mxPoint x="530" y="235"/>
                        </Array>
                    </mxGeometry>
                </mxCell>
                <mxCell id="87" value="ACM" style="points=[[0,0,0],[0.25,0,0],[0.5,0,0],[0.75,0,0],[1,0,0],[0,1,0],[0.25,1,0],[0.5,1,0],[0.75,1,0],[1,1,0],[0,0.25,0],[0,0.5,0],[0,0.75,0],[1,0.25,0],[1,0.5,0],[1,0.75,0]];outlineConnect=0;fontColor=#232F3E;gradientColor=#F54749;gradientDirection=north;fillColor=#C7131F;strokeColor=#ffffff;dashed=0;verticalLabelPosition=bottom;verticalAlign=top;align=center;html=1;fontSize=12;fontStyle=0;aspect=fixed;shape=mxgraph.aws4.resourceIcon;resIcon=mxgraph.aws4.certificate_manager_3;labelBackgroundColor=#FFFFFF;" parent="1" vertex="1">
                    <mxGeometry x="500" y="250" width="60" height="60" as="geometry"/>
                </mxCell>
                <mxCell id="107" style="edgeStyle=orthogonalEdgeStyle;rounded=0;sketch=0;jumpStyle=none;orthogonalLoop=1;jettySize=auto;html=1;startArrow=none;startFill=0;endArrow=block;endFill=1;fontColor=#000000;exitX=0.5;exitY=0;exitDx=0;exitDy=0;" parent="1" source="124" target="2" edge="1">
                    <mxGeometry relative="1" as="geometry">
                        <mxPoint x="220" y="41" as="targetPoint"/>
                        <Array as="points">
                            <mxPoint x="565" y="10"/>
                            <mxPoint x="215" y="10"/>
                        </Array>
                        <mxPoint x="551" y="30" as="sourcePoint"/>
                    </mxGeometry>
                </mxCell>
                <mxCell id="5" value="Private subnet" style="points=[[0,0],[0.25,0],[0.5,0],[0.75,0],[1,0],[1,0.25],[1,0.5],[1,0.75],[1,1],[0.75,1],[0.5,1],[0.25,1],[0,1],[0,0.75],[0,0.5],[0,0.25]];outlineConnect=0;gradientColor=none;html=1;whiteSpace=wrap;fontSize=12;fontStyle=0;shape=mxgraph.aws4.group;grIcon=mxgraph.aws4.group_security_group;grStroke=0;strokeColor=#147EBA;fillColor=#E6F2F8;verticalAlign=top;align=left;spacingLeft=30;fontColor=#147EBA;dashed=0;" parent="1" vertex="1">
                    <mxGeometry x="100" y="1002" width="620" height="148" as="geometry"/>
                </mxCell>
                <mxCell id="9" value="RDS&lt;br&gt;(MySQL)" style="points=[[0,0,0],[0.25,0,0],[0.5,0,0],[0.75,0,0],[1,0,0],[0,1,0],[0.25,1,0],[0.5,1,0],[0.75,1,0],[1,1,0],[0,0.25,0],[0,0.5,0],[0,0.75,0],[1,0.25,0],[1,0.5,0],[1,0.75,0]];outlineConnect=0;fontColor=#232F3E;gradientColor=#4D72F3;gradientDirection=north;fillColor=#3334B9;strokeColor=#ffffff;dashed=0;verticalLabelPosition=bottom;verticalAlign=top;align=center;html=1;fontSize=12;fontStyle=0;aspect=fixed;shape=mxgraph.aws4.resourceIcon;resIcon=mxgraph.aws4.rds;" parent="1" vertex="1">
                    <mxGeometry x="360" y="1030" width="60" height="60" as="geometry"/>
                </mxCell>
                <mxCell id="117" value="" style="fillColor=none;dashed=1;verticalAlign=top;fontStyle=0;fontColor=#5A6C86;strokeColor=#CC0000;" parent="1" vertex="1">
                    <mxGeometry x="810" y="190" width="190" height="150" as="geometry"/>
                </mxCell>
                <mxCell id="148" style="edgeStyle=orthogonalEdgeStyle;rounded=0;orthogonalLoop=1;jettySize=auto;html=1;entryX=1;entryY=0.75;entryDx=0;entryDy=0;endArrow=block;endFill=1;" parent="1" source="121" target="141" edge="1">
                    <mxGeometry relative="1" as="geometry"/>
                </mxCell>
                <mxCell id="121" value="Systems Manager" style="points=[[0,0,0],[0.25,0,0],[0.5,0,0],[0.75,0,0],[1,0,0],[0,1,0],[0.25,1,0],[0.5,1,0],[0.75,1,0],[1,1,0],[0,0.25,0],[0,0.5,0],[0,0.75,0],[1,0.25,0],[1,0.5,0],[1,0.75,0]];points=[[0,0,0],[0.25,0,0],[0.5,0,0],[0.75,0,0],[1,0,0],[0,1,0],[0.25,1,0],[0.5,1,0],[0.75,1,0],[1,1,0],[0,0.25,0],[0,0.5,0],[0,0.75,0],[1,0.25,0],[1,0.5,0],[1,0.75,0]];outlineConnect=0;fontColor=#232F3E;gradientColor=#F34482;gradientDirection=north;fillColor=#BC1356;strokeColor=#ffffff;dashed=0;verticalLabelPosition=bottom;verticalAlign=top;align=center;html=1;fontSize=12;fontStyle=0;aspect=fixed;shape=mxgraph.aws4.resourceIcon;resIcon=mxgraph.aws4.systems_manager;" parent="1" vertex="1">
                    <mxGeometry x="990" y="852" width="60" height="60" as="geometry"/>
                </mxCell>
                <mxCell id="124" value="" style="shape=image;verticalLabelPosition=bottom;labelBackgroundColor=#ffffff;verticalAlign=top;aspect=fixed;imageAspect=0;image=data:image/svg+xml,PHN2ZyB4bWxucz0iaHR0cDovL3d3dy53My5vcmcvMjAwMC9zdmciIHdpZHRoPSIxMjAiIGhlaWdodD0iNjAiIHZpZXdCb3g9IjAgMCAxMjAgNjAiPjxwYXRoIGQ9Ik00MC45NzMgMzQuNDNsMi4zLTEuODFjLjY0NCAxLjEzNCAxLjY4NiAxLjc3OCAyLjg4MiAxLjc3OCAxLjI4OCAwIDEuOTkzLS44MjggMS45OTMtMS43NDggMC0xLjEwNC0xLjMxOC0xLjQ0LTIuNzYtMS44Ny0xLjc3OC0uNTUyLTMuNzctMS4yMjYtMy43Ny0zLjgwMiAwLTIuMTQ2IDEuODctMy44MzIgNC40MTUtMy44MzIgMi4xNzcgMCAzLjQwMy44MjggNC40NzYgMS45MzJsLTIuMDg1IDEuNTk0Yy0uNTUyLS44MjgtMS4zMTgtMS4yNTctMi4zNi0xLjI1Ny0xLjE5NiAwLTEuODEuNjQ0LTEuODEgMS40NzIgMCAxLjAxMiAxLjI4OCAxLjM4IDIuNjk4IDEuODQgMS44MS41ODMgMy44MzIgMS4zOCAzLjgzMiAzLjkyNCAwIDIuMTE2LTEuNjg2IDQuMTQtNC42IDQuMTQtMi4zOS4wMy00LjAxNi0uOTgtNS4yMTItMi4zNnptMjAuMzktNi44OThoMi40ODN2MS4wMTJjLjU4My0uNzM2IDEuNDcyLTEuMTk2IDIuNTE0LTEuMTk2IDIuMTQ2IDAgMy40MzQgMS4zOCAzLjQzNCAzLjc0djUuNTVoLTIuNTQ1di01LjIxMmMwLTEuMjI2LS41NTItMS45MzItMS42ODYtMS45MzItLjk1IDAtMS43MTcuNjQ0LTEuNzE3IDIuMTc3djQuOTY3SDYxLjM2em05LjAxNCA0LjU2OGMwLTMuMjIgMi4zNi00Ljc1MiA0LjQxNS00Ljc1MiAxLjE5NiAwIDIuMTE2LjQzIDIuNzMgMS4wNzN2LTUuMDloMi40ODN2MTMuMzA2SDc3LjUydi0xLjAxMmMtLjYxMy43MDUtMS41NjQgMS4xOTYtMi43NiAxLjE5Ni0xLjkzMiAwLTQuMzg0LTEuNTMzLTQuMzg0LTQuNzIyem03LjIwNS0uMDNjMC0xLjM1LS45OC0yLjQ1My0yLjMzLTIuNDUzYTIuNCAyLjQgMCAwIDAtMi40NTMgMi40NTMgMi4zOCAyLjM4IDAgMCAwIDIuNDUzIDIuNDUzYzEuMzUgMCAyLjMzLTEuMTA0IDIuMzMtMi40NTN6bTMuMDA1LTIuMDg1YzAtMy44MDIgMi44NS02LjgzNyA2LjgwNi02LjgzNyAxLjk2MiAwIDMuNjE4LjcwNSA0LjgxNCAxLjg0LjQ5LjQ2Ljg5Ljk4IDEuMjI2IDEuNTY0bC0yLjIwNyAxLjM1Yy0uODI4LTEuNTAyLTIuMDg1LTIuMy0zLjgwMi0yLjMtMi40MjIgMC00LjI5MiAxLjk5My00LjI5MiA0LjM4NCAwIDIuNDUzIDEuODQgNC4zODQgNC4zODQgNC4zODQgMS45MzIgMCAzLjMxLTEuMTA0IDMuNzctMi44aC00LjE3di0yLjQyMmg2Ljg5OHYxLjAxMmMwIDMuNTU2LTIuNTQ1IDYuNjUzLTYuNSA2LjY1My00LjE3IDAtNi45My0zLjE1OC02LjkzLTYuODM3em0xNC4wNDItMi40NTNIOTcuMXYxLjUwMmMuNDYtLjk1IDEuMjg4LTEuNTAyIDIuNTE0LTEuNTAyaDEuMDEybC0uOTIgMi40MjJoLS42NzVjLTEuMzE4IDAtMS45LjcwNS0xLjkgMi4zOXY0LjI5MmgtMi41MTR6bTYuNjUzIDBoMi40ODN2OS4xMDZoLTIuNDgzdi02LjY4NGgtLjkyem0xLjI1Ny0xLjM4Yy44MjggMCAxLjUwMi0uNjc1IDEuNTAyLTEuNTAycy0uNjc1LTEuNTAyLTEuNTAyLTEuNTAyLTEuNTAyLjY3NS0xLjUwMiAxLjUwMi42NzUgMS41MDIgMS41MDIgMS41MDJ6bTEuODQgNS45NDhjMC0zLjIyIDIuMzYtNC43NTIgNC40MTUtNC43NTIgMS4xOTYgMCAyLjExNS40MyAyLjczIDEuMDczdi01LjA5aDIuNDgzdjEzLjMwNmgtMi40ODN2LTEuMDEyYy0uNjEzLjcwNS0xLjU2NCAxLjE5Ni0yLjc2IDEuMTk2LTEuOTMyIDAtNC4zODQtMS41MzMtNC4zODQtNC43MjJ6bTcuMjA1LS4wM2MwLTEuMzUtLjk4LTIuNDUzLTIuMzMtMi40NTNhMi40IDIuNCAwIDAgMC0yLjQ1MyAyLjQ1MyAyLjM4IDIuMzggMCAwIDAgMi40NTMgMi40NTNjMS4zNSAwIDIuMzMtMS4xMDQgMi4zMy0yLjQ1M3ptLTUwLjgwMyAwYzAtMi42MzctMS45LTQuNzIyLTQuNjktNC43MjItMi42MzcgMC00Ljc1MiAyLjExNi00Ljc1MiA0Ljc1MnMxLjk2MiA0Ljc1MiA0LjgxNCA0Ljc1MmMxLjk2MiAwIDMuMzczLS45NSA0LjE3LTIuM2wtMS45OTMtMS4xOTZjLS40My43OTctMS4yMjYgMS4zMTgtMi4xNzcgMS4zMTgtMS4zMTggMC0yLjE0Ni0uNjQ0LTIuNDIyLTEuNjU2aDcuMDJ2LS45NXptLTYuOTMtMS4xMDRjLjM2OC0uODU4IDEuMTk2LTEuNDQgMi4yMzgtMS40NHMxLjg0LjQ5IDIuMTc3IDEuNDR6IiBmaWxsPSIjMjYzNzQ2Ii8+PHBhdGggZD0iTTUuOTk2IDI0Ljk2aDEwLjAydjEwLjAySDUuOTk2eiIgZmlsbD0iI2ZmZiIvPjxwYXRoIGQ9Ik01Ljk5NiAyNC45NmgxMC4wMnYxMC4wMkg1Ljk5NnoiIGZpbGw9IiM5OWUxZjQiIGVuYWJsZS1iYWNrZ3JvdW5kPSJuZXcgIi8+PHBhdGggZD0iTTE2LjAxNiAzNC45OGg5Ljk2M3Y5Ljk2M2gtOS45NjN6IiBmaWxsPSIjZmZmIi8+PHBhdGggZD0iTTE2LjAxNiAzNC45OGg5Ljk2M3Y5Ljk2M2gtOS45NjN6IiBmaWxsPSIjOTllMWY0IiBlbmFibGUtYmFja2dyb3VuZD0ibmV3ICIvPjxwYXRoIGQ9Ik01Ljk5NiA0NC45NDRoMTAuMDJ2LjA1OEg1Ljk5NnptMC05Ljk2NGgxMC4wMnY5Ljk2M0g1Ljk5NnoiIGZpbGw9IiMxYTgyZTIiLz48cGF0aCBkPSJNMTYuMDE2IDE0Ljk5OGg5Ljk2M3Y5Ljk2M2gtOS45NjN6TTI1Ljk4IDI1LjAySDM2djkuOTYzSDI1Ljk4eiIgZmlsbD0iIzAwYjNlMyIvPjxwYXRoIGQ9Ik0yNS45OCAzNC45OFYyNC45NmgtOS45NjN2MTAuMDJ6IiBmaWxsPSIjMDA5ZGQ5Ii8+PGcgZmlsbD0iIzFhODJlMiI+PHBhdGggZD0iTTI1Ljk4IDE0Ljk5OEgzNnY5Ljk2M0gyNS45OHoiLz48cGF0aCBkPSJNMjUuOTggMjQuOTZIMzZ2LjA1OEgyNS45OHoiLz48L2c+PC9zdmc+;" parent="1" vertex="1">
                    <mxGeometry x="495" y="30" width="140" height="70" as="geometry"/>
                </mxCell>
                <mxCell id="137" value="[Test &amp;amp; Deploy Frontend]" style="text;html=1;strokeColor=none;fillColor=none;align=center;verticalAlign=middle;whiteSpace=wrap;rounded=0;" parent="1" vertex="1">
                    <mxGeometry x="913" y="351" width="147" height="20" as="geometry"/>
                </mxCell>
                <mxCell id="141" value="Task" style="fillColor=#EFF0F3;strokeColor=none;dashed=0;verticalAlign=top;fontStyle=0;fontColor=#232F3D;html=0;" parent="1" vertex="1">
                    <mxGeometry x="185" y="710" width="445" height="230" as="geometry"/>
                </mxCell>
                <mxCell id="44" value="" style="group" parent="1" vertex="1" connectable="0">
                    <mxGeometry x="230" y="740" width="110" height="189" as="geometry"/>
                </mxCell>
                <mxCell id="39" value="" style="fillColor=none;strokeColor=#5A6C86;dashed=1;verticalAlign=top;fontStyle=0;fontColor=#5A6C86;labelBackgroundColor=none;align=left;" parent="44" vertex="1">
                    <mxGeometry width="110" height="160" as="geometry"/>
                </mxCell>
                <mxCell id="36" value="Nginx" style="shape=image;verticalLabelPosition=bottom;labelBackgroundColor=none;verticalAlign=top;aspect=fixed;imageAspect=0;image=data:image/svg+xml,PHN2ZyB4bWxucz0iaHR0cDovL3d3dy53My5vcmcvMjAwMC9zdmciIHZpZXdCb3g9IjAgMCAzMiAzMiI+PHRpdGxlPmZpbGVfdHlwZV9uZ2lueDwvdGl0bGU+PHBhdGggZD0iTTE1Ljk0OCwyaC4wNjVhMTAuNDE4LDEwLjQxOCwwLDAsMSwuOTcyLjUyOFEyMi40MTQsNS42NSwyNy44NDMsOC43NzRhLjc5Mi43OTIsMCwwLDEsLjQxNC43ODhjLS4wMDgsNC4zODksMCw4Ljc3Ny0uMDA1LDEzLjE2NGEuODEzLjgxMywwLDAsMS0uMzU2LjUwN3EtNS43NzMsMy4zMjQtMTEuNTQ3LDYuNjQ0YS41ODcuNTg3LDAsMCwxLS42NTcuMDM3UTkuOTEyLDI2LjYsNC4xNDMsMjMuMjc0YS43LjcsMCwwLDEtLjQtLjY2NnEwLTYuNTgyLDAtMTMuMTYzYS42OTMuNjkzLDAsMCwxLC4zODctLjY3UTkuNTUyLDUuNjU3LDE0Ljk3NCwyLjUzNWMuMzIyLS4xODQuNjM4LS4zNzkuOTc0LS41MzUiIHN0eWxlPSJmaWxsOiMwMTk2MzkiLz48cGF0aCBkPSJNOC43NjcsMTAuNTM4cTAsNS40MjksMCwxMC44NTlhMS41MDksMS41MDksMCwwLDAsLjQyNywxLjA4NywxLjY0NywxLjY0NywwLDAsMCwyLjA2LjIwNiwxLjU2NCwxLjU2NCwwLDAsMCwuNjg1LTEuMjkzYzAtMi42Mi0uMDA1LTUuMjQsMC03Ljg2cTMuNTgzLDQuMjksNy4xODEsOC41NjhhMi44MzMsMi44MzMsMCwwLDAsMi42Ljc4MiwxLjU2MSwxLjU2MSwwLDAsMCwxLjI1MS0xLjM3MXEuMDA4LTUuNTQxLDAtMTEuMDgxYTEuNTgyLDEuNTgyLDAsMCwwLTMuMTUyLDBjMCwyLjY2Mi0uMDE2LDUuMzIxLDAsNy45ODItMi4zNDYtMi43NjYtNC42NjMtNS41NTYtNy04LjMzMkEyLjgxNywyLjgxNywwLDAsMCwxMC4xNyw5LjAzMywxLjU3OSwxLjU3OSwwLDAsMCw4Ljc2NywxMC41MzhaIiBzdHlsZT0iZmlsbDojZmZmIi8+PC9zdmc+;" parent="44" vertex="1">
                    <mxGeometry x="20" y="28.62" width="70" height="70" as="geometry"/>
                </mxCell>
                <mxCell id="53" value="" style="shape=image;verticalLabelPosition=bottom;labelBackgroundColor=#ffffff;verticalAlign=top;aspect=fixed;imageAspect=0;image=data:image/svg+xml,PHN2ZyB4bWxucz0iaHR0cDovL3d3dy53My5vcmcvMjAwMC9zdmciIHZpZXdCb3g9IjAgMCAxMjggMTI4Ij48Zz48cGF0aCBmaWxsLXJ1bGU9ImV2ZW5vZGQiIGNsaXAtcnVsZT0iZXZlbm9kZCIgZmlsbD0iIzNBNEQ1NCIgZD0iTTIwIDk2Ljl2LTguMWMwLTEuMS43LTEuOSAxLjgtMS45aC4zYzEuMSAwIDEuOC45IDEuOCAxLjl2MTdjMCA0LjEtMiA3LjQtNS42IDkuNS0xLjcgMS0zLjUgMS41LTUuNCAxLjVoLS44Yy00LjEgMC03LjQtMi05LjUtNS42LTEtMS43LTEuNS0zLjUtMS41LTUuNHYtLjhjMC00LjEgMi03LjQgNS42LTkuNSAxLjctMSAzLjUtMS41IDUuNC0xLjVoLjhjMi43LjEgNS4xIDEuMSA3LjEgMi45em0tMTUuMSA4LjVjMCAzIDEuNSA1LjIgNC4xIDYuNyAxLjEuNiAyLjIuOSAzLjQuOSAyLjkgMCA1LjEtMS40IDYuNi0zLjkuNy0xLjIgMS0yLjQgMS0zLjggMC0yLjYtMS4yLTQuNi0zLjMtNi4xLTEuMy0uOS0yLjctMS40LTQuMi0xLjQtMy4yIDAtNS41IDEuNi02LjkgNC41LS41IDEtLjcgMi4xLS43IDMuMXptMzIuMi0xMS4zaC41YzQuNCAwIDcuOCAyLjEgOS45IDYgLjkgMS41IDEuMyAzLjIgMS4zIDV2LjhjMCA0LjEtMiA3LjQtNS42IDkuNS0xLjcgMS0zLjUgMS41LTUuNCAxLjVoLS44Yy00LjEgMC03LjQtMi05LjUtNS42LTEtMS43LTEuNS0zLjUtMS41LTUuNHYtLjhjMC00LjEgMi4xLTcuNCA1LjYtOS41IDEuNy0xLjEgMy42LTEuNSA1LjUtMS41em0tNy4yIDExLjNjMCAyLjkgMS40IDUgMy45IDYuNSAxLjIuNyAyLjQgMSAzLjggMSAyLjkgMCA1LTEuNSA2LjUtMy45LjctMS4yIDEtMi40IDEtMy44IDAtMi43LTEuMy00LjgtMy41LTYuMy0xLjItLjgtMi42LTEuMi00LTEuMi0zLjIgMC01LjUgMS42LTYuOSA0LjUtLjYgMS4xLS44IDIuMi0uOCAzLjJ6bTM0LjgtNy4yYy0uNi0uMy0xLjctLjQtMi4zLS40LTMuMi0uMS01LjUgMS43LTYuOSA0LjUtLjUgMS0uNyAyLS43IDMuMSAwIDMuMyAxLjcgNS42IDQuNiA3IDEuMS41IDIuNC42IDMuNi42IDEgMCAyLjUtLjYgMy40LTEuMWwuMi0uMWguNzk5OTk5OTk5OTk5OTk5OWMuOS4yIDEuNS43IDEuNSAxLjd2LjRjMCAyLjMtNC4zIDIuOS01LjkgMy01LjcuNC0xMC0yLjctMTEuNi04LjItLjMtLjktLjQtMS45LS40LTIuOXYtLjhjMC00LjEgMi4xLTcuNCA1LjYtOS41IDEuNy0xIDMuNS0xLjUgNS40LTEuNWguOGMyIDAgMy45LjYgNS42IDEuN2wuMS4xLjEuMWMuMi4zLjMuNi4zIDF2LjRjMCAxLS43IDEuNS0xLjYgMS43aC0uMzAwMDAwMDAwMDAwMDAwMDRjLS41IDAtMS44LS42LTIuMy0uOHptMTIuNCAyLjZjMS41LTEuNSAzLTMgNC41LTQuNC40LS40IDItMi4xIDIuNi0yLjFoLjc5OTk5OTk5OTk5OTk5OTljLjkuMiAxLjUuNyAxLjUgMS43di40YzAgLjYtLjcgMS40LTEuMiAxLjhsLTIuNyAyLjctNC42IDQuN2MyIDIgNCA0IDUuOSA2bDEuNiAxLjdjLjIuMi41LjQuNi43LjIuMy4zLjYuMy45di41Yy0uMi45LS44IDEuNi0xLjcgMS42aC0uM2MtLjYgMC0xLjMtLjctMS44LTEuMS0uOS0uOC0xLjgtMS43LTIuNi0yLjZsLTIuOS0yLjl2NC42YzAgMS4xLS43IDEuOS0xLjggMS45aC0uM2MtMS4xIDAtMS44LS45LTEuOC0xLjl2LTI2LjFjMC0xLjEuNy0xLjkgMS44LTEuOWguM2MxLjEgMCAxLjguOCAxLjggMS45djExLjl6bTQ3LjYtNi42aC40YzEuMSAwIDEuOS44IDEuOSAxLjkgMCAxLjYtMS41IDItMi44IDItMS43IDAtMy40IDEtNC41IDIuMi0xLjUgMS41LTIuMSAzLjMtMi4xIDUuNHY5LjJjMCAxLjEtLjcgMS45LTEuOCAxLjloLS4zYy0xLjEgMC0xLjgtLjktMS44LTEuOXYtOS44YzAtMy44IDEuOC02LjggNC45LTkgMS44LTEuMiAzLjktMS45IDYuMS0xLjl6bS0yNy4xIDE4LjNjMS40LjUgMyAuNCA0LjQuMi43LS4zIDIuNi0xLjEgMy4zLTFoLjJjLjQuMi44LjUgMSAuOS41IDEgLjMgMi0uNyAyLjZsLS4zLjJjLTMuNiAyLjEtNy41IDEuOC0xMS4xLS4yLTEuNy0uOS0zLTIuMy00LTRsLS4yLS40Yy0yLjMtNC0yLTguMy42LTEyLjEuOS0xLjMgMi4xLTIuMyAzLjUtMy4xbC41LS4zYzMuNC0yIDcuMS0xLjggMTAuNi0uMSAxLjkuOSAzLjQgMi4zIDQuNSA0LjFsLjIuM2MuOCAxLjMtLjIgMi41LTEuMiAzLjMtMS4yLjktMi40IDItMy41IDMtMi43IDIuMi01LjMgNC40LTcuOCA2LjZ6bS0zLjMtMi4zbDguNS03LjNjMS0uOCAyLTEuNyAzLTIuNi0uOC0xLTIuMS0xLjctMy4xLTIuMS0yLjItLjgtNC40LS42LTYuNC42LTIuNiAxLjUtMy44IDQtMy43IDcgMCAxLjIuNCAyLjMgMSAzLjQuMi40LjQuNy43IDEiLz48cGF0aCBmaWxsLXJ1bGU9ImV2ZW5vZGQiIGNsaXAtcnVsZT0iZXZlbm9kZCIgZmlsbD0iIzNBNEQ1NCIgZD0iTTczLjcgMzMuN2gxMS4zdjExLjVoNS43YzIuNiAwIDUuMy0uNSA3LjgtMS4zIDEuMi0uNCAyLjYtMSAzLjgtMS43LTEuNi0yLjEtMi40LTQuNy0yLjYtNy4zLS4zLTMuNS40LTguMSAyLjgtMTAuOGwxLjItMS40IDEuNCAxLjFjMy42IDIuOSA2LjUgNi44IDcuMSAxMS40IDQuMy0xLjMgOS4zLTEgMTMuMSAxLjJsMS41LjktLjggMS42Yy0zLjIgNi4yLTkuOSA4LjItMTYuNCA3LjgtOS44IDI0LjMtMzEgMzUuOC01Ni44IDM1LjgtMTMuMyAwLTI1LjUtNS0zMi41LTE2LjhsLS4xLS4yLTEtMi4xYy0yLjQtNS4yLTMuMS0xMC45LTIuNi0xNi42bC4yLTEuN2g5LjZ2LTExLjRoMTEuM3YtMTEuM2gyMi41di0xMS4zaDEzLjV2MjIuNnoiLz48cGF0aCBmaWxsPSIjMDBBQURBIiBkPSJNMTEwLjIgMzcuOWMuOC01LjktMy42LTEwLjUtNi40LTEyLjctMy4xIDMuNi0zLjYgMTMuMiAxLjMgMTcuMi0yLjggMi40LTguNSA0LjctMTQuNSA0LjdoLTcyLjJjLS42IDYuMi41IDExLjkgMyAxNi44bC44IDEuNWMuNS45IDEuMSAxLjcgMS43IDIuNiAzIC4yIDUuNy4zIDguMi4yIDQuOS0uMSA4LjktLjcgMTItMS43LjUtLjIuOS4xIDEuMS41LjIuNS0uMS45LS41IDEuMS0uNC4xLS44LjMtMS4zLjQtMi40LjctNSAxLjEtOC4zIDEuM2gtLjYwMDAwMDAwMDAwMDAwMDFjLTEuMy4xLTIuNy4xLTQuMi4xLTEuNiAwLTMuMSAwLTQuOS0uMSA2IDYuOCAxNS40IDEwLjggMjcuMiAxMC44IDI1IDAgNDYuMi0xMS4xIDU1LjUtMzUuOSA2LjcuNyAxMy4xLTEgMTYtNi43LTQuNS0yLjYtMTAuNS0xLjgtMTMuOS0uMXoiLz48cGF0aCBmaWxsPSIjMjhCOEVCIiBkPSJNMTEwLjIgMzcuOWMuOC01LjktMy42LTEwLjUtNi40LTEyLjctMy4xIDMuNi0zLjYgMTMuMiAxLjMgMTcuMi0yLjggMi40LTguNSA0LjctMTQuNSA0LjdoLTY4Yy0uMyA5LjUgMy4yIDE2LjcgOS41IDIxIDQuOS0uMSA4LjktLjcgMTItMS43LjUtLjIuOS4xIDEuMS41LjIuNS0uMS45LS41IDEuMS0uNC4xLS44LjMtMS4zLjQtMi40LjctNS4yIDEuMi04LjUgMS40bC0uMS0uMWM4LjUgNC40IDIwLjggNC4zIDM1LTEuMSAxNS44LTYuMSAzMC42LTE3LjcgNDAuOS0zMC45LS4yLjEtLjMuMi0uNS4yeiIvPjxwYXRoIGZpbGw9IiMwMjhCQjgiIGQ9Ik0xOC41IDU0LjZjLjQgMy4zIDEuNCA2LjQgMi45IDkuM2wuOCAxLjVjLjUuOSAxLjEgMS43IDEuNyAyLjYgMyAuMiA1LjcuMyA4LjIuMiA0LjktLjEgOC45LS43IDEyLTEuNy41LS4yLjkuMSAxLjEuNS4yLjUtLjEuOS0uNSAxLjEtLjQuMS0uOC4zLTEuMy40LTIuNC43LTUuMiAxLjItOC41IDEuNGgtLjRjLTEuMy4xLTIuNy4xLTQuMS4xLTEuNiAwLTMuMiAwLTQuOS0uMSA2IDYuOCAxNS41IDEwLjggMjcuMyAxMC44IDIxLjQgMCA0MC04LjEgNTAuOC0yNmgtODUuMXYtLjF6Ii8+PHBhdGggZmlsbD0iIzAxOUJDNiIgZD0iTTIzLjMgNTQuNmMxLjMgNS44IDQuMyAxMC40IDguOCAxMy41IDQuOS0uMSA4LjktLjcgMTItMS43LjUtLjIuOS4xIDEuMS41LjIuNS0uMS45LS41IDEuMS0uNC4xLS44LjMtMS4zLjQtMi40LjctNS4yIDEuMi04LjYgMS40IDguNSA0LjQgMjAuOCA0LjMgMzQuOS0xLjEgOC41LTMuMyAxNi44LTguMiAyNC4yLTE0LjFoLTcwLjZ6Ii8+PHBhdGggZmlsbC1ydWxlPSJldmVub2RkIiBjbGlwLXJ1bGU9ImV2ZW5vZGQiIGZpbGw9IiMwMEFDRDMiIGQ9Ik0yOC4yIDM1LjVoOS44djkuOGgtOS44di05Ljh6bS44LjloLjh2OC4xaC0uOHYtOC4xem0xLjUgMGguOHY4LjFoLS44di04LjF6bTEuNSAwaC44djguMWgtLjh2LTguMXptMS40IDBoLjh2OC4xaC0uOHYtOC4xem0xLjUgMGguOHY4LjFoLS44di04LjF6bTEuNSAwaC44djguMWgtLjh2LTguMXpNMzkuNSAyNC4zaDkuOHY5LjdoLTkuOHYtOS43em0uOC44aC44djguMWgtLjh2LTguMXptMS41IDBoLjh2OC4xaC0uOHYtOC4xem0xLjQgMGguOHY4LjFoLS44di04LjF6bTEuNSAwaC44djguMWgtLjh2LTguMXptMS41IDBoLjh2OC4xaC0uOHYtOC4xem0xLjUgMGguOHY4LjFoLS44di04LjF6Ii8+PHBhdGggZmlsbC1ydWxlPSJldmVub2RkIiBjbGlwLXJ1bGU9ImV2ZW5vZGQiIGZpbGw9IiMyM0MyRUUiIGQ9Ik0zOS41IDM1LjVoOS44djkuOGgtOS44di05Ljh6bS44LjloLjh2OC4xaC0uOHYtOC4xem0xLjUgMGguOHY4LjFoLS44di04LjF6bTEuNCAwaC44djguMWgtLjh2LTguMXptMS41IDBoLjh2OC4xaC0uOHYtOC4xem0xLjUgMGguOHY4LjFoLS44di04LjF6bTEuNSAwaC44djguMWgtLjh2LTguMXoiLz48cGF0aCBmaWxsLXJ1bGU9ImV2ZW5vZGQiIGNsaXAtcnVsZT0iZXZlbm9kZCIgZmlsbD0iIzAwQUNEMyIgZD0iTTUwLjggMzUuNWg5Ljh2OS44aC05Ljh2LTkuOHptLjguOWguOHY4LjFoLS44di04LjF6bTEuNCAwaC44djguMWgtLjh2LTguMXptMS41IDBoLjh2OC4xaC0uOHYtOC4xem0xLjUgMGguOHY4LjFoLS44di04LjF6bTEuNSAwaC44djguMWgtLjh2LTguMXptMS40IDBoLjh2OC4xaC0uOHYtOC4xeiIvPjxwYXRoIGZpbGwtcnVsZT0iZXZlbm9kZCIgY2xpcC1ydWxlPSJldmVub2RkIiBmaWxsPSIjMjNDMkVFIiBkPSJNNTAuOCAyNC4zaDkuOHY5LjdoLTkuOHYtOS43em0uOC44aC44djguMWgtLjh2LTguMXptMS40IDBoLjh2OC4xaC0uOHYtOC4xem0xLjUgMGguOHY4LjFoLS44di04LjF6bTEuNSAwaC44djguMWgtLjh2LTguMXptMS41IDBoLjh2OC4xaC0uOHYtOC4xem0xLjQgMGguOHY4LjFoLS44di04LjF6TTYyIDM1LjVoOS44djkuOGgtOS44di05Ljh6bS45LjloLjh2OC4xaC0uOHYtOC4xem0xLjQgMGguOHY4LjFoLS44di04LjF6bTEuNSAwaC44djguMWgtLjh2LTguMXptMS41IDBoLjh2OC4xaC0uOHYtOC4xem0xLjQgMGguOHY4LjFoLS44di04LjF6bTEuNSAwaC44djguMWgtLjh2LTguMXoiLz48cGF0aCBmaWxsLXJ1bGU9ImV2ZW5vZGQiIGNsaXAtcnVsZT0iZXZlbm9kZCIgZmlsbD0iIzAwQUNEMyIgZD0iTTYyIDI0LjNoOS44djkuN2gtOS44di05Ljd6bS45LjhoLjh2OC4xaC0uOHYtOC4xem0xLjQgMGguOHY4LjFoLS44di04LjF6bTEuNSAwaC44djguMWgtLjh2LTguMXptMS41IDBoLjh2OC4xaC0uOHYtOC4xem0xLjQgMGguOHY4LjFoLS44di04LjF6bTEuNSAwaC44djguMWgtLjh2LTguMXoiLz48cGF0aCBmaWxsLXJ1bGU9ImV2ZW5vZGQiIGNsaXAtcnVsZT0iZXZlbm9kZCIgZmlsbD0iIzIzQzJFRSIgZD0iTTYyIDEzaDkuOHY5LjhoLTkuOHYtOS44em0uOS44aC44djguMmgtLjh2LTguMnptMS40IDBoLjh2OC4yaC0uOHYtOC4yem0xLjUgMGguOHY4LjJoLS44di04LjJ6bTEuNSAwaC44djguMmgtLjh2LTguMnptMS40IDBoLjh2OC4yaC0uOHYtOC4yem0xLjUgMGguOHY4LjJoLS44di04LjJ6Ii8+PHBhdGggZmlsbC1ydWxlPSJldmVub2RkIiBjbGlwLXJ1bGU9ImV2ZW5vZGQiIGZpbGw9IiMwMEFDRDMiIGQ9Ik03My4zIDM1LjVoOS44djkuOGgtOS44di05Ljh6bS44LjloLjh2OC4xaC0uOHYtOC4xem0xLjUgMGguOHY4LjFoLS44di04LjF6bTEuNSAwaC44djguMWgtLjh2LTguMXptMS40IDBoLjh2OC4xaC0uOHYtOC4xem0xLjUgMGguOHY4LjFoLS44di04LjF6bTEuNSAwaC44djguMWgtLjh2LTguMXoiLz48cGF0aCBmaWxsLXJ1bGU9ImV2ZW5vZGQiIGNsaXAtcnVsZT0iZXZlbm9kZCIgZmlsbD0iI0Q0RUVGMSIgZD0iTTQ4LjYgNjEuMmMxLjUgMCAyLjcgMS4yIDIuNyAyLjcgMCAxLjUtMS4yIDIuNy0yLjcgMi43LTEuNSAwLTIuNy0xLjItMi43LTIuNy4xLTEuNSAxLjMtMi43IDIuNy0yLjciLz48cGF0aCBmaWxsLXJ1bGU9ImV2ZW5vZGQiIGNsaXAtcnVsZT0iZXZlbm9kZCIgZmlsbD0iIzNBNEQ1NCIgZD0iTTQ4LjYgNjEuOWMuMiAwIC41IDAgLjcuMS0uMi4xLS40LjQtLjQuNyAwIC40LjQuOC44LjguMyAwIC42LS4yLjctLjQuMS4yLjEuNS4xLjcgMCAxLjEtLjkgMS45LTEuOSAxLjktMS4xIDAtMS45LS45LTEuOS0xLjkgMC0xIC45LTEuOSAxLjktMS45TTEgNTUuNmgxMjUuM2MtMi43LS43LTguNi0xLjYtNy43LTUuMi01IDUuNy0xNi45IDQtMjAgMS4yLTMuNCA0LjktMjMgMy0yNC4zLS44LTQuMiA1LTE3LjMgNS0yMS41IDAtMS40IDMuOC0yMSA1LjctMjQuMy44LTMgMi44LTE1IDQuNS0yMC0xLjIgMS4xIDMuNS00LjggNC41LTcuNSA1LjIiLz48cGF0aCBmaWxsPSIjQkZEQkUwIiBkPSJNNTUuOCA4MC42Yy02LjctMy4yLTEwLjMtNy41LTEyLjQtMTIuMi0yLjUuNy01LjUgMS4yLTguOSAxLjQtMS4zLjEtMi43LjEtNC4xLjEtMS43IDAtMy40IDAtNS4yLS4xIDYuMSA2LjEgMTMuNyAxMC44IDI3LjYgMTAuOSAxLS4xIDItLjEgMy0uMXoiLz48cGF0aCBmaWxsPSIjRDRFRUYxIiBkPSJNNDUuOSA3Mi43Yy0uOS0xLjMtMS44LTIuOC0yLjUtNC4zLTIuNS43LTUuNSAxLjItOC45IDEuNCAyLjQgMS4zIDUuOCAyLjUgMTEuNCAyLjl6Ii8+PC9nPjwvc3ZnPg==;" parent="44" vertex="1">
                    <mxGeometry x="-20" y="129" width="60" height="60" as="geometry"/>
                </mxCell>
                <mxCell id="95" value="" style="group" parent="1" vertex="1" connectable="0">
                    <mxGeometry x="460" y="740" width="131.81999999999994" height="189" as="geometry"/>
                </mxCell>
                <mxCell id="40" value="" style="fillColor=none;strokeColor=#5A6C86;dashed=1;verticalAlign=top;fontStyle=0;fontColor=#5A6C86;labelBackgroundColor=none;align=left;" parent="95" vertex="1">
                    <mxGeometry x="21.819999999999993" width="110" height="159" as="geometry"/>
                </mxCell>
                <mxCell id="54" value="" style="shape=image;verticalLabelPosition=bottom;labelBackgroundColor=#ffffff;verticalAlign=top;aspect=fixed;imageAspect=0;image=data:image/svg+xml,PHN2ZyB4bWxucz0iaHR0cDovL3d3dy53My5vcmcvMjAwMC9zdmciIHZpZXdCb3g9IjAgMCAxMjggMTI4Ij48Zz48cGF0aCBmaWxsLXJ1bGU9ImV2ZW5vZGQiIGNsaXAtcnVsZT0iZXZlbm9kZCIgZmlsbD0iIzNBNEQ1NCIgZD0iTTIwIDk2Ljl2LTguMWMwLTEuMS43LTEuOSAxLjgtMS45aC4zYzEuMSAwIDEuOC45IDEuOCAxLjl2MTdjMCA0LjEtMiA3LjQtNS42IDkuNS0xLjcgMS0zLjUgMS41LTUuNCAxLjVoLS44Yy00LjEgMC03LjQtMi05LjUtNS42LTEtMS43LTEuNS0zLjUtMS41LTUuNHYtLjhjMC00LjEgMi03LjQgNS42LTkuNSAxLjctMSAzLjUtMS41IDUuNC0xLjVoLjhjMi43LjEgNS4xIDEuMSA3LjEgMi45em0tMTUuMSA4LjVjMCAzIDEuNSA1LjIgNC4xIDYuNyAxLjEuNiAyLjIuOSAzLjQuOSAyLjkgMCA1LjEtMS40IDYuNi0zLjkuNy0xLjIgMS0yLjQgMS0zLjggMC0yLjYtMS4yLTQuNi0zLjMtNi4xLTEuMy0uOS0yLjctMS40LTQuMi0xLjQtMy4yIDAtNS41IDEuNi02LjkgNC41LS41IDEtLjcgMi4xLS43IDMuMXptMzIuMi0xMS4zaC41YzQuNCAwIDcuOCAyLjEgOS45IDYgLjkgMS41IDEuMyAzLjIgMS4zIDV2LjhjMCA0LjEtMiA3LjQtNS42IDkuNS0xLjcgMS0zLjUgMS41LTUuNCAxLjVoLS44Yy00LjEgMC03LjQtMi05LjUtNS42LTEtMS43LTEuNS0zLjUtMS41LTUuNHYtLjhjMC00LjEgMi4xLTcuNCA1LjYtOS41IDEuNy0xLjEgMy42LTEuNSA1LjUtMS41em0tNy4yIDExLjNjMCAyLjkgMS40IDUgMy45IDYuNSAxLjIuNyAyLjQgMSAzLjggMSAyLjkgMCA1LTEuNSA2LjUtMy45LjctMS4yIDEtMi40IDEtMy44IDAtMi43LTEuMy00LjgtMy41LTYuMy0xLjItLjgtMi42LTEuMi00LTEuMi0zLjIgMC01LjUgMS42LTYuOSA0LjUtLjYgMS4xLS44IDIuMi0uOCAzLjJ6bTM0LjgtNy4yYy0uNi0uMy0xLjctLjQtMi4zLS40LTMuMi0uMS01LjUgMS43LTYuOSA0LjUtLjUgMS0uNyAyLS43IDMuMSAwIDMuMyAxLjcgNS42IDQuNiA3IDEuMS41IDIuNC42IDMuNi42IDEgMCAyLjUtLjYgMy40LTEuMWwuMi0uMWguNzk5OTk5OTk5OTk5OTk5OWMuOS4yIDEuNS43IDEuNSAxLjd2LjRjMCAyLjMtNC4zIDIuOS01LjkgMy01LjcuNC0xMC0yLjctMTEuNi04LjItLjMtLjktLjQtMS45LS40LTIuOXYtLjhjMC00LjEgMi4xLTcuNCA1LjYtOS41IDEuNy0xIDMuNS0xLjUgNS40LTEuNWguOGMyIDAgMy45LjYgNS42IDEuN2wuMS4xLjEuMWMuMi4zLjMuNi4zIDF2LjRjMCAxLS43IDEuNS0xLjYgMS43aC0uMzAwMDAwMDAwMDAwMDAwMDRjLS41IDAtMS44LS42LTIuMy0uOHptMTIuNCAyLjZjMS41LTEuNSAzLTMgNC41LTQuNC40LS40IDItMi4xIDIuNi0yLjFoLjc5OTk5OTk5OTk5OTk5OTljLjkuMiAxLjUuNyAxLjUgMS43di40YzAgLjYtLjcgMS40LTEuMiAxLjhsLTIuNyAyLjctNC42IDQuN2MyIDIgNCA0IDUuOSA2bDEuNiAxLjdjLjIuMi41LjQuNi43LjIuMy4zLjYuMy45di41Yy0uMi45LS44IDEuNi0xLjcgMS42aC0uM2MtLjYgMC0xLjMtLjctMS44LTEuMS0uOS0uOC0xLjgtMS43LTIuNi0yLjZsLTIuOS0yLjl2NC42YzAgMS4xLS43IDEuOS0xLjggMS45aC0uM2MtMS4xIDAtMS44LS45LTEuOC0xLjl2LTI2LjFjMC0xLjEuNy0xLjkgMS44LTEuOWguM2MxLjEgMCAxLjguOCAxLjggMS45djExLjl6bTQ3LjYtNi42aC40YzEuMSAwIDEuOS44IDEuOSAxLjkgMCAxLjYtMS41IDItMi44IDItMS43IDAtMy40IDEtNC41IDIuMi0xLjUgMS41LTIuMSAzLjMtMi4xIDUuNHY5LjJjMCAxLjEtLjcgMS45LTEuOCAxLjloLS4zYy0xLjEgMC0xLjgtLjktMS44LTEuOXYtOS44YzAtMy44IDEuOC02LjggNC45LTkgMS44LTEuMiAzLjktMS45IDYuMS0xLjl6bS0yNy4xIDE4LjNjMS40LjUgMyAuNCA0LjQuMi43LS4zIDIuNi0xLjEgMy4zLTFoLjJjLjQuMi44LjUgMSAuOS41IDEgLjMgMi0uNyAyLjZsLS4zLjJjLTMuNiAyLjEtNy41IDEuOC0xMS4xLS4yLTEuNy0uOS0zLTIuMy00LTRsLS4yLS40Yy0yLjMtNC0yLTguMy42LTEyLjEuOS0xLjMgMi4xLTIuMyAzLjUtMy4xbC41LS4zYzMuNC0yIDcuMS0xLjggMTAuNi0uMSAxLjkuOSAzLjQgMi4zIDQuNSA0LjFsLjIuM2MuOCAxLjMtLjIgMi41LTEuMiAzLjMtMS4yLjktMi40IDItMy41IDMtMi43IDIuMi01LjMgNC40LTcuOCA2LjZ6bS0zLjMtMi4zbDguNS03LjNjMS0uOCAyLTEuNyAzLTIuNi0uOC0xLTIuMS0xLjctMy4xLTIuMS0yLjItLjgtNC40LS42LTYuNC42LTIuNiAxLjUtMy44IDQtMy43IDcgMCAxLjIuNCAyLjMgMSAzLjQuMi40LjQuNy43IDEiLz48cGF0aCBmaWxsLXJ1bGU9ImV2ZW5vZGQiIGNsaXAtcnVsZT0iZXZlbm9kZCIgZmlsbD0iIzNBNEQ1NCIgZD0iTTczLjcgMzMuN2gxMS4zdjExLjVoNS43YzIuNiAwIDUuMy0uNSA3LjgtMS4zIDEuMi0uNCAyLjYtMSAzLjgtMS43LTEuNi0yLjEtMi40LTQuNy0yLjYtNy4zLS4zLTMuNS40LTguMSAyLjgtMTAuOGwxLjItMS40IDEuNCAxLjFjMy42IDIuOSA2LjUgNi44IDcuMSAxMS40IDQuMy0xLjMgOS4zLTEgMTMuMSAxLjJsMS41LjktLjggMS42Yy0zLjIgNi4yLTkuOSA4LjItMTYuNCA3LjgtOS44IDI0LjMtMzEgMzUuOC01Ni44IDM1LjgtMTMuMyAwLTI1LjUtNS0zMi41LTE2LjhsLS4xLS4yLTEtMi4xYy0yLjQtNS4yLTMuMS0xMC45LTIuNi0xNi42bC4yLTEuN2g5LjZ2LTExLjRoMTEuM3YtMTEuM2gyMi41di0xMS4zaDEzLjV2MjIuNnoiLz48cGF0aCBmaWxsPSIjMDBBQURBIiBkPSJNMTEwLjIgMzcuOWMuOC01LjktMy42LTEwLjUtNi40LTEyLjctMy4xIDMuNi0zLjYgMTMuMiAxLjMgMTcuMi0yLjggMi40LTguNSA0LjctMTQuNSA0LjdoLTcyLjJjLS42IDYuMi41IDExLjkgMyAxNi44bC44IDEuNWMuNS45IDEuMSAxLjcgMS43IDIuNiAzIC4yIDUuNy4zIDguMi4yIDQuOS0uMSA4LjktLjcgMTItMS43LjUtLjIuOS4xIDEuMS41LjIuNS0uMS45LS41IDEuMS0uNC4xLS44LjMtMS4zLjQtMi40LjctNSAxLjEtOC4zIDEuM2gtLjYwMDAwMDAwMDAwMDAwMDFjLTEuMy4xLTIuNy4xLTQuMi4xLTEuNiAwLTMuMSAwLTQuOS0uMSA2IDYuOCAxNS40IDEwLjggMjcuMiAxMC44IDI1IDAgNDYuMi0xMS4xIDU1LjUtMzUuOSA2LjcuNyAxMy4xLTEgMTYtNi43LTQuNS0yLjYtMTAuNS0xLjgtMTMuOS0uMXoiLz48cGF0aCBmaWxsPSIjMjhCOEVCIiBkPSJNMTEwLjIgMzcuOWMuOC01LjktMy42LTEwLjUtNi40LTEyLjctMy4xIDMuNi0zLjYgMTMuMiAxLjMgMTcuMi0yLjggMi40LTguNSA0LjctMTQuNSA0LjdoLTY4Yy0uMyA5LjUgMy4yIDE2LjcgOS41IDIxIDQuOS0uMSA4LjktLjcgMTItMS43LjUtLjIuOS4xIDEuMS41LjIuNS0uMS45LS41IDEuMS0uNC4xLS44LjMtMS4zLjQtMi40LjctNS4yIDEuMi04LjUgMS40bC0uMS0uMWM4LjUgNC40IDIwLjggNC4zIDM1LTEuMSAxNS44LTYuMSAzMC42LTE3LjcgNDAuOS0zMC45LS4yLjEtLjMuMi0uNS4yeiIvPjxwYXRoIGZpbGw9IiMwMjhCQjgiIGQ9Ik0xOC41IDU0LjZjLjQgMy4zIDEuNCA2LjQgMi45IDkuM2wuOCAxLjVjLjUuOSAxLjEgMS43IDEuNyAyLjYgMyAuMiA1LjcuMyA4LjIuMiA0LjktLjEgOC45LS43IDEyLTEuNy41LS4yLjkuMSAxLjEuNS4yLjUtLjEuOS0uNSAxLjEtLjQuMS0uOC4zLTEuMy40LTIuNC43LTUuMiAxLjItOC41IDEuNGgtLjRjLTEuMy4xLTIuNy4xLTQuMS4xLTEuNiAwLTMuMiAwLTQuOS0uMSA2IDYuOCAxNS41IDEwLjggMjcuMyAxMC44IDIxLjQgMCA0MC04LjEgNTAuOC0yNmgtODUuMXYtLjF6Ii8+PHBhdGggZmlsbD0iIzAxOUJDNiIgZD0iTTIzLjMgNTQuNmMxLjMgNS44IDQuMyAxMC40IDguOCAxMy41IDQuOS0uMSA4LjktLjcgMTItMS43LjUtLjIuOS4xIDEuMS41LjIuNS0uMS45LS41IDEuMS0uNC4xLS44LjMtMS4zLjQtMi40LjctNS4yIDEuMi04LjYgMS40IDguNSA0LjQgMjAuOCA0LjMgMzQuOS0xLjEgOC41LTMuMyAxNi44LTguMiAyNC4yLTE0LjFoLTcwLjZ6Ii8+PHBhdGggZmlsbC1ydWxlPSJldmVub2RkIiBjbGlwLXJ1bGU9ImV2ZW5vZGQiIGZpbGw9IiMwMEFDRDMiIGQ9Ik0yOC4yIDM1LjVoOS44djkuOGgtOS44di05Ljh6bS44LjloLjh2OC4xaC0uOHYtOC4xem0xLjUgMGguOHY4LjFoLS44di04LjF6bTEuNSAwaC44djguMWgtLjh2LTguMXptMS40IDBoLjh2OC4xaC0uOHYtOC4xem0xLjUgMGguOHY4LjFoLS44di04LjF6bTEuNSAwaC44djguMWgtLjh2LTguMXpNMzkuNSAyNC4zaDkuOHY5LjdoLTkuOHYtOS43em0uOC44aC44djguMWgtLjh2LTguMXptMS41IDBoLjh2OC4xaC0uOHYtOC4xem0xLjQgMGguOHY4LjFoLS44di04LjF6bTEuNSAwaC44djguMWgtLjh2LTguMXptMS41IDBoLjh2OC4xaC0uOHYtOC4xem0xLjUgMGguOHY4LjFoLS44di04LjF6Ii8+PHBhdGggZmlsbC1ydWxlPSJldmVub2RkIiBjbGlwLXJ1bGU9ImV2ZW5vZGQiIGZpbGw9IiMyM0MyRUUiIGQ9Ik0zOS41IDM1LjVoOS44djkuOGgtOS44di05Ljh6bS44LjloLjh2OC4xaC0uOHYtOC4xem0xLjUgMGguOHY4LjFoLS44di04LjF6bTEuNCAwaC44djguMWgtLjh2LTguMXptMS41IDBoLjh2OC4xaC0uOHYtOC4xem0xLjUgMGguOHY4LjFoLS44di04LjF6bTEuNSAwaC44djguMWgtLjh2LTguMXoiLz48cGF0aCBmaWxsLXJ1bGU9ImV2ZW5vZGQiIGNsaXAtcnVsZT0iZXZlbm9kZCIgZmlsbD0iIzAwQUNEMyIgZD0iTTUwLjggMzUuNWg5Ljh2OS44aC05Ljh2LTkuOHptLjguOWguOHY4LjFoLS44di04LjF6bTEuNCAwaC44djguMWgtLjh2LTguMXptMS41IDBoLjh2OC4xaC0uOHYtOC4xem0xLjUgMGguOHY4LjFoLS44di04LjF6bTEuNSAwaC44djguMWgtLjh2LTguMXptMS40IDBoLjh2OC4xaC0uOHYtOC4xeiIvPjxwYXRoIGZpbGwtcnVsZT0iZXZlbm9kZCIgY2xpcC1ydWxlPSJldmVub2RkIiBmaWxsPSIjMjNDMkVFIiBkPSJNNTAuOCAyNC4zaDkuOHY5LjdoLTkuOHYtOS43em0uOC44aC44djguMWgtLjh2LTguMXptMS40IDBoLjh2OC4xaC0uOHYtOC4xem0xLjUgMGguOHY4LjFoLS44di04LjF6bTEuNSAwaC44djguMWgtLjh2LTguMXptMS41IDBoLjh2OC4xaC0uOHYtOC4xem0xLjQgMGguOHY4LjFoLS44di04LjF6TTYyIDM1LjVoOS44djkuOGgtOS44di05Ljh6bS45LjloLjh2OC4xaC0uOHYtOC4xem0xLjQgMGguOHY4LjFoLS44di04LjF6bTEuNSAwaC44djguMWgtLjh2LTguMXptMS41IDBoLjh2OC4xaC0uOHYtOC4xem0xLjQgMGguOHY4LjFoLS44di04LjF6bTEuNSAwaC44djguMWgtLjh2LTguMXoiLz48cGF0aCBmaWxsLXJ1bGU9ImV2ZW5vZGQiIGNsaXAtcnVsZT0iZXZlbm9kZCIgZmlsbD0iIzAwQUNEMyIgZD0iTTYyIDI0LjNoOS44djkuN2gtOS44di05Ljd6bS45LjhoLjh2OC4xaC0uOHYtOC4xem0xLjQgMGguOHY4LjFoLS44di04LjF6bTEuNSAwaC44djguMWgtLjh2LTguMXptMS41IDBoLjh2OC4xaC0uOHYtOC4xem0xLjQgMGguOHY4LjFoLS44di04LjF6bTEuNSAwaC44djguMWgtLjh2LTguMXoiLz48cGF0aCBmaWxsLXJ1bGU9ImV2ZW5vZGQiIGNsaXAtcnVsZT0iZXZlbm9kZCIgZmlsbD0iIzIzQzJFRSIgZD0iTTYyIDEzaDkuOHY5LjhoLTkuOHYtOS44em0uOS44aC44djguMmgtLjh2LTguMnptMS40IDBoLjh2OC4yaC0uOHYtOC4yem0xLjUgMGguOHY4LjJoLS44di04LjJ6bTEuNSAwaC44djguMmgtLjh2LTguMnptMS40IDBoLjh2OC4yaC0uOHYtOC4yem0xLjUgMGguOHY4LjJoLS44di04LjJ6Ii8+PHBhdGggZmlsbC1ydWxlPSJldmVub2RkIiBjbGlwLXJ1bGU9ImV2ZW5vZGQiIGZpbGw9IiMwMEFDRDMiIGQ9Ik03My4zIDM1LjVoOS44djkuOGgtOS44di05Ljh6bS44LjloLjh2OC4xaC0uOHYtOC4xem0xLjUgMGguOHY4LjFoLS44di04LjF6bTEuNSAwaC44djguMWgtLjh2LTguMXptMS40IDBoLjh2OC4xaC0uOHYtOC4xem0xLjUgMGguOHY4LjFoLS44di04LjF6bTEuNSAwaC44djguMWgtLjh2LTguMXoiLz48cGF0aCBmaWxsLXJ1bGU9ImV2ZW5vZGQiIGNsaXAtcnVsZT0iZXZlbm9kZCIgZmlsbD0iI0Q0RUVGMSIgZD0iTTQ4LjYgNjEuMmMxLjUgMCAyLjcgMS4yIDIuNyAyLjcgMCAxLjUtMS4yIDIuNy0yLjcgMi43LTEuNSAwLTIuNy0xLjItMi43LTIuNy4xLTEuNSAxLjMtMi43IDIuNy0yLjciLz48cGF0aCBmaWxsLXJ1bGU9ImV2ZW5vZGQiIGNsaXAtcnVsZT0iZXZlbm9kZCIgZmlsbD0iIzNBNEQ1NCIgZD0iTTQ4LjYgNjEuOWMuMiAwIC41IDAgLjcuMS0uMi4xLS40LjQtLjQuNyAwIC40LjQuOC44LjguMyAwIC42LS4yLjctLjQuMS4yLjEuNS4xLjcgMCAxLjEtLjkgMS45LTEuOSAxLjktMS4xIDAtMS45LS45LTEuOS0xLjkgMC0xIC45LTEuOSAxLjktMS45TTEgNTUuNmgxMjUuM2MtMi43LS43LTguNi0xLjYtNy43LTUuMi01IDUuNy0xNi45IDQtMjAgMS4yLTMuNCA0LjktMjMgMy0yNC4zLS44LTQuMiA1LTE3LjMgNS0yMS41IDAtMS40IDMuOC0yMSA1LjctMjQuMy44LTMgMi44LTE1IDQuNS0yMC0xLjIgMS4xIDMuNS00LjggNC41LTcuNSA1LjIiLz48cGF0aCBmaWxsPSIjQkZEQkUwIiBkPSJNNTUuOCA4MC42Yy02LjctMy4yLTEwLjMtNy41LTEyLjQtMTIuMi0yLjUuNy01LjUgMS4yLTguOSAxLjQtMS4zLjEtMi43LjEtNC4xLjEtMS43IDAtMy40IDAtNS4yLS4xIDYuMSA2LjEgMTMuNyAxMC44IDI3LjYgMTAuOSAxLS4xIDItLjEgMy0uMXoiLz48cGF0aCBmaWxsPSIjRDRFRUYxIiBkPSJNNDUuOSA3Mi43Yy0uOS0xLjMtMS44LTIuOC0yLjUtNC4zLTIuNS43LTUuNSAxLjItOC45IDEuNCAyLjQgMS4zIDUuOCAyLjUgMTEuNCAyLjl6Ii8+PC9nPjwvc3ZnPg==;" parent="95" vertex="1">
                    <mxGeometry y="129" width="60" height="60" as="geometry"/>
                </mxCell>
                <mxCell id="32" value="Rails / Puma" style="shape=image;verticalLabelPosition=bottom;labelBackgroundColor=none;verticalAlign=top;aspect=fixed;imageAspect=0;image=data:image/svg+xml,PHN2ZyB4bWxucz0iaHR0cDovL3d3dy53My5vcmcvMjAwMC9zdmciIHZpZXdCb3g9IjAgMCAxMjggMTI4Ij48ZyBmaWxsPSIjQTYyQzQ2Ij48cGF0aCBkPSJNMTguOTIyIDEwNC41MzJ2MjEuNDY4aDUuNDc2di01LjU5MWw0Ljk4MyA0Ljk4M2g4LjQwMmwtNi42NjQtNi42NjRzNC43OTUtLjA3OCA1LjE1Ny03LjAxYzAtNi4zNjEtNC44LTcuMTg2LTEwLjM0My03LjE4NmgtNy4wMTF6bTUuNzM3IDUuODI0aDQuNzIydjMuODI0aC00LjcyMnYtMy44MjR6Ii8+PHBhdGggZD0iTTQ4LjM1OCAxMDQuNjE5Yy0yLjk5Ny0uMDE3LTcuMTU1LjI2MS03LjE1NSA1LjkxMXYxNC45Mmg1LjYydi0zLjY1aDUuNDQ3djMuNTYzaDUuNjQ5di0xNS42NDRjMC00LjkwNy01LjQ1Mi01LjEtOC4zNzMtNS4xaC0xLjE4OHptLTEuNDQ5IDUuMzg4aDUuMjczdjUuODgyaC01LjI3M3YtNS44ODJ6Ii8+PHBhdGggZD0iTTYzLjU1IDEwNC42MzJoNS44MTV2MjAuNTM3aC01LjgxNXoiLz48cGF0aCBkPSJNNzUuNDU0IDEwNC45MDV2MjAuNTM3aDEzLjk5NXYtNS40NTJoLTguMjY5di0xNS4xNzVsLTUuNzI2LjA5eiIvPjxwYXRoIGQ9Ik0xMDcuOTg2IDEwNC43MjJ2NS41NDNoLTkuMzZ2MS45OTloMy45OTlzNi40NTMtLjA5IDYuNDUzIDYuNDUyYzAgNi41NDMtMyA2LjkwNy05LjA4OCA2LjkwN2gtNy4zNnYtNC45OThoOC40NTFjMi41NDQgMCAyLjY4NS0uODI5IDIuNjg1LTEuNTUxIDAtLjcyMS0xLjMtMS4wNTYtMy45NDYtMS4wNTZzLTcuNTUzLTEuMzAxLTcuNTUzLTYuMzg5YzAtNS4wODkgMi41NDUtNi45OTggNy42MzMtNi45OTggNS4wODguMDAxIDguMDg2LjA5MSA4LjA4Ni4wOTF6Ii8+PC9nPjxwYXRoIGZpbGwtcnVsZT0iZXZlbm9kZCIgY2xpcC1ydWxlPSJldmVub2RkIiBmaWxsPSIjQTYyQzQ2IiBkPSJNMTAwLjU1NiAxMC44MThjLTkuNzQ5LTQuODExLTE5LjczNC01LjMtMjkuOTU4LTEuNjg3LTkuNDA4IDMuMzI2LTE2LjkxMyA5LjI3Ny0yMi40OTEgMTcuMzgxLTkuNDQgMTMuNzE2LTE2LjI5NiAyOC42ODItMjAuMTQxIDQ0LjkzOC0xLjk2NiA4LjMyMi0zLjI0MSAxNi4zMDQtMi44OTggMjQuODk3LjAyOC42OTguMTMxIDEuNjUzLjIgMS42NTNoNDguMjE0Yy0uMTM3IDAtLjIyOS0uMjg4LS4zNDgtLjU5My0yLjUzNi02LjQ3NS00LjU0NS0xMi44OTEtNS45MzMtMTkuNzA1LTEuOTk1LTkuNzg0LTMuMDM5LTE5LjU0MS0uOTc5LTI5LjQxNiAyLjg4NC0xMy44MjkgMTAuNzY3LTIzLjcwMiAyNC4wNTUtMjguODczIDcuNTI3LTIuOTMyIDE0LjY3LTIuMDQ0IDIwLjkzNyAzLjQ1NS4wNTguMDUxLjE3NS4wNDguMzI4LjA3M2wyLjA1LTMuMDg3Yy0zLjk0Ni0zLjc1OC04LjI4Mi02LjY5LTEzLjAzNi05LjAzNnpNMjUuMDY3IDc1LjE1NGwtOS40NS0uNzE0LTEuMDcgOS4xNDYgOC44OTEgMS4wNjggMS42MjktOS41ek0zMy4wNjkgNDcuMTM1Yy0yLjg4OS0xLjEyOS01LjU4LTIuMTgzLTguMzYzLTMuMjczLS45MjggMi42MzgtMS43OTQgNS4wOTMtMi43MDQgNy42NzUgMi45MTkuOTM2IDUuNjY4IDEuODE3IDguNTI0IDIuNzMxbDIuNTQzLTcuMTMzek03Mi41NDIgODkuOTkzYzIuODU1LjIxMiA1LjcxNi4zNiA4Ljg2Ny41NDMtMS4xNDUtMi4zNzktMi4xNi00LjUzLTMuMjI2LTYuNjU3LS4xMTYtLjIzMS0uNTEtLjQ1NC0uNzc3LS40NTgtMi40MjItLjAzNS00Ljg0Ny0uMDIxLTcuNDIxLS4wMjEuNTc5IDIuMSAxLjA4NCA0LjAzNSAxLjY3NCA1Ljk0NS4wODguMjg4LjU2My42MjQuODgzLjY0OHpNNDcuMjQzIDIzLjg4OWwtNi4zNTMtNC4yMDdjLTEuNzAzIDEuOTAzLTMuMzQ1IDMuNzM4LTUuMDggNS42NzVsNi41MzIgNC4zOSA0LjkwMS01Ljg1OHpNNjcuNDc3IDY2LjUxNWMtLjAwOS4yNTcuMjIyLjY2NS40NDYuNzY3IDIuMjg5IDEuMDI4IDQuNjAxIDIuMDA4IDcuMTE5IDMuMDkzLS4xMDUtMS45OS0uMTc2LTMuNjU0LS4yOTQtNS4zMTQtLjAyMi0uMjk4LS4xNjMtLjcyOS0uMzg0LS44NTItMi4xMDEtMS4xNjQtNC4yMzEtMi4yNzQtNi41NjItMy41MS0uMTI4IDIuMTI5LS4yNTcgMy45Ny0uMzI1IDUuODE2ek02NS41OTUgOC44NzFsLTQuMzUtNC45MzYtNS45ODkgMy4xMTMgNC4zNTYgNS4zMDcgNS45ODMtMy40ODR6TTY4LjMyMyA0OC4xNDhjLS4xMjkuMy4wNDMuOTMyLjI5OCAxLjE2MyAxLjczNyAxLjU2NyAzLjUzNCAzLjA2NiA1LjUzMiA0Ljc3Ny40NTgtMS45MTcuODg5LTMuNjI1IDEuMjU1LTUuMzQ1LjA2NS0uMzA3LS4wMjUtLjgxMy0uMjM4LS45ODMtMS41NTUtMS4yNTQtMy4xNTktMi40NDYtNC44MjItMy43MTYtLjczMSAxLjQ1MS0xLjQzOSAyLjc1MS0yLjAyNSA0LjEwNHpNNzguMjY3IDYuMjc2YzIuMjIuMDYyIDQuNDQzLjAzNCA2Ljc4OC4wMzQtLjIzNC0xLjYzMi0uMzQ1LTIuODctLjYyNC00LjA2Ny0uMDgzLS4zNTUtLjYyMS0uODMxLS45ODItLjg2LTIuMjI1LS4xODEtNC40Ni0uMjUtNi45MS0uMzY3LjMyNyAxLjY0Ny41NzYgMy4wOTkuOTI4IDQuNTI2LjA3Ni4zMDQuNTE4LjcyOC44LjczNHpNODAuOTcxIDM0Ljc3Yy4xMTMtLjIxMi4xNDItLjU5OC4wMjMtLjc4NC0xLjA5Mi0xLjcwNi0yLjIyNC0zLjM4Ny0zLjM5OC01LjE1NGwtMy44MDMgMy40OTEgNS4yNTkgNS44MjdjLjcwNS0xLjIzIDEuMzM3LTIuMjkyIDEuOTE5LTMuMzh6TTg1LjA3MSAyMy4xNjhjLjgwOCAxLjQ5OSAxLjU0IDIuODU4IDIuMjcxIDQuMjE5IDMuNTUzLTEuOTQ2IDMuODk0LTIuNjUzIDIuNjM1LTUuNDU4bC00LjkwNiAxLjIzOXpNMTAyLjA3MyAxMC4xNzFjMS40NzkuOTEyIDMuMDQgMS42ODggNC42MjcgMi41NDRsMS4wNjItMS42NTQtNS45MjEtNC4zMzRjLS4wODIuODgxLS4yMDYgMS40OTktLjE3NCAyLjEwNi4wMjUuNDY1LjEwNCAxLjE1MS40MDYgMS4zMzh6TTEwNiAyMS44NjhjLTMtLjM1MS00LS42OTgtNi0xLjA1OHYyLjcxNGMyIC4xNzMgMyAuMzM5IDYgLjUxM3YtMi4xNjl6Ii8+PC9zdmc+;" parent="95" vertex="1">
                    <mxGeometry x="40.56999999999999" y="28.75" width="72.5" height="72.5" as="geometry"/>
                </mxCell>
                <mxCell id="89" style="edgeStyle=orthogonalEdgeStyle;rounded=0;sketch=0;jumpStyle=none;orthogonalLoop=1;jettySize=auto;html=1;entryX=0.5;entryY=0;entryDx=0;entryDy=0;startArrow=none;startFill=0;endArrow=block;endFill=1;fontColor=#000000;exitX=0.5;exitY=1;exitDx=0;exitDy=0;exitPerimeter=0;" parent="1" source="88" target="39" edge="1">
                    <mxGeometry relative="1" as="geometry">
                        <mxPoint x="363.42857142857156" y="489.9999999999998" as="sourcePoint"/>
                        <Array as="points">
                            <mxPoint x="404" y="540"/>
                            <mxPoint x="285" y="540"/>
                        </Array>
                    </mxGeometry>
                </mxCell>
                <mxCell id="88" value="ALB" style="outlineConnect=0;dashed=0;verticalLabelPosition=bottom;verticalAlign=top;align=center;html=1;shape=mxgraph.aws3.application_load_balancer;fillColor=#F58534;gradientColor=none;labelBackgroundColor=#ffffff;strokeColor=#999900;fontColor=#999900;" parent="1" vertex="1">
                    <mxGeometry x="374" y="450" width="60" height="60" as="geometry"/>
                </mxCell>
                <mxCell id="113" style="edgeStyle=orthogonalEdgeStyle;rounded=0;sketch=0;jumpStyle=none;orthogonalLoop=1;jettySize=auto;html=1;entryX=1;entryY=0.5;entryDx=0;entryDy=0;entryPerimeter=0;startArrow=none;startFill=0;endArrow=block;endFill=1;fontColor=#000000;exitX=0.583;exitY=0.994;exitDx=0;exitDy=0;exitPerimeter=0;" parent="1" source="40" target="9" edge="1">
                    <mxGeometry relative="1" as="geometry">
                        <Array as="points">
                            <mxPoint x="546" y="1060"/>
                        </Array>
                    </mxGeometry>
                </mxCell>
                <mxCell id="98" style="edgeStyle=orthogonalEdgeStyle;rounded=0;sketch=0;jumpStyle=none;orthogonalLoop=1;jettySize=auto;html=1;entryX=1;entryY=0.5;entryDx=0;entryDy=0;startArrow=block;startFill=1;endArrow=none;endFill=0;fontColor=#000000;exitX=0.5;exitY=1;exitDx=0;exitDy=0;" parent="1" source="19" target="40" edge="1">
                    <mxGeometry relative="1" as="geometry">
                        <Array as="points">
                            <mxPoint x="899" y="820"/>
                        </Array>
                        <mxPoint x="902.5" y="738.9247049582148" as="sourcePoint"/>
                    </mxGeometry>
                </mxCell>
                <mxCell id="143" value="&lt;font style=&quot;font-size: 11px&quot;&gt;/rails/active_storage/*&lt;/font&gt;" style="text;html=1;strokeColor=none;fillColor=none;align=center;verticalAlign=middle;whiteSpace=wrap;rounded=0;" parent="1" vertex="1">
                    <mxGeometry x="221" y="230" width="130" height="20" as="geometry"/>
                </mxCell>
                <mxCell id="6" value="Auto Scaling" style="points=[[0,0],[0.25,0],[0.5,0],[0.75,0],[1,0],[1,0.25],[1,0.5],[1,0.75],[1,1],[0.75,1],[0.5,1],[0.25,1],[0,1],[0,0.75],[0,0.5],[0,0.25]];outlineConnect=0;gradientColor=none;html=1;whiteSpace=wrap;fontSize=12;fontStyle=0;shape=mxgraph.aws4.groupCenter;grIcon=mxgraph.aws4.group_auto_scaling_group;grStroke=1;strokeColor=#D86613;fillColor=none;verticalAlign=top;align=center;fontColor=#D86613;dashed=1;spacingTop=25;" parent="1" vertex="1">
                    <mxGeometry x="144" y="660" width="536" height="290" as="geometry"/>
                </mxCell>
                <mxCell id="42" style="edgeStyle=orthogonalEdgeStyle;rounded=0;sketch=0;jumpStyle=none;orthogonalLoop=1;jettySize=auto;html=1;exitX=1;exitY=0.5;exitDx=0;exitDy=0;entryX=0;entryY=0.5;entryDx=0;entryDy=0;fontColor=#999900;startArrow=none;startFill=0;endArrow=block;endFill=1;" parent="1" source="39" target="40" edge="1">
                    <mxGeometry relative="1" as="geometry"/>
                </mxCell>
                <mxCell id="138" value="&lt;span style=&quot;background-color: rgb(233 , 243 , 230)&quot;&gt;sockets&lt;/span&gt;" style="edgeLabel;html=1;align=center;verticalAlign=middle;resizable=0;points=[];" parent="42" vertex="1" connectable="0">
                    <mxGeometry x="0.061" y="-3" relative="1" as="geometry">
                        <mxPoint y="1" as="offset"/>
                    </mxGeometry>
                </mxCell>
                <mxCell id="108" style="edgeStyle=orthogonalEdgeStyle;rounded=0;sketch=0;jumpStyle=none;orthogonalLoop=1;jettySize=auto;html=1;exitX=0.5;exitY=0;exitDx=0;exitDy=0;startArrow=none;startFill=0;endArrow=block;endFill=1;fontColor=#000000;opacity=50;" parent="1" source="40" edge="1">
                    <mxGeometry relative="1" as="geometry">
                        <mxPoint x="430" y="375" as="targetPoint"/>
                        <Array as="points">
                            <mxPoint x="537" y="375"/>
                        </Array>
                    </mxGeometry>
                </mxCell>
                <mxCell id="109" value="SMTP" style="edgeLabel;html=1;align=center;verticalAlign=middle;resizable=0;points=[];fontColor=#000000;" parent="108" vertex="1" connectable="0">
                    <mxGeometry x="0.1165" y="-3" relative="1" as="geometry">
                        <mxPoint as="offset"/>
                    </mxGeometry>
                </mxCell>
            </root>
        </mxGraphModel>
    </diagram>
</mxfile>
